/* XPM */
static char * away_xpm[] = {
"16 16 33 1",
" 	c None",
".	c #000000",
"+	c #B19023",
"@	c #B08D22",
"#	c #9D7A15",
"$	c #997713",
"%	c #B69327",
"&	c #B39224",
"*	c #AA891D",
"=	c #927111",
"-	c #8F6C0F",
";	c #D8B549",
">	c #B89728",
",	c #A18018",
"'	c #8B690D",
")	c #86640C",
"!	c #B89528",
"~	c #9E7B16",
"{	c #8B690E",
"]	c #83610B",
"^	c #927011",
"/	c #A6841B",
"(	c #7D5B09",
"_	c #85620C",
":	c #795A08",
"<	c #AF8C21",
"[	c #755407",
"}	c #818181",
"|	c #CCCCCC",
"1	c #606060",
"2	c #515151",
"3	c #3F3F3F",
"4	c #C0C0C0",
"                ",
"      ....      ",
"     .+@#$.     ",
"    .+%&*=-.    ",
"   .+%;>+,').   ",
"   .@&;!@~{].   ",
"   .#*+@~^/(.   ",
"   .$_~~^/!:.   ",
"    .-]<>!:.    ",
"     .)],:.     ",
"      .:[.      ",
"     ......     ",
"     .}|}1.     ",
"     ..23..     ",
"      .4}.      ",
"       ..       "};
