/* XPM */
static char * chat_xpm[] = {
"16 16 25 1",
" 	c None",
".	c #000000",
"+	c #CBA429",
"@	c #CAA328",
"#	c #C8A126",
"$	c #CFA92E",
"%	c #D6B137",
"&	c #D9B43C",
"*	c #C9A227",
"=	c #D5B036",
"-	c #DCB840",
";	c #E7C652",
">	c #CEA82D",
",	c #DDB941",
"'	c #F3D970",
")	c #F8E282",
"!	c #EBCB5A",
"~	c #D8B239",
"{	c #E8C754",
"]	c #E9C856",
"^	c #ECCC5C",
"/	c #E3C14C",
"(	c #F1D468",
"_	c #DEBA42",
":	c #F3D86F",
"                ",
"      ....      ",
"    ..+@#@..    ",
"   .$%&%$*@=.   ",
"  .$-..;-..>,.  ",
"  .%;')';%@+&.  ",
" .+&!).)!.+@~{. ",
" .@%;'.';.@+&]. ",
" .#$.;!;-$#.,^. ",
" .@*.%&%$*@./(. ",
"  .@#.+@#@._!.  ",
"  .=>+...._]:.  ",
"   .,&~&,/!:.   ",
"    ..{]^(..    ",
"      ....      ",
"                "};
