/* XPM */
static char * dnd_xpm[] = {
"16 16 17 1",
" 	c None",
".	c #020204",
"+	c #B27757",
"@	c #E9B29A",
"#	c #CE9274",
"$	c #804B2E",
"%	c #A16544",
"&	c #FED2C4",
"*	c #C68A6F",
"=	c #F3BEAB",
"-	c #DEA68D",
";	c #91593C",
">	c #FEE2D4",
",	c #AA7151",
"'	c #BE8264",
")	c #D69E84",
"!	c #A66A4C",
"                ",
"     ......     ",
"   ..      ..   ",
" ..          .. ",
".              .",
"................",
".>&&=@-))**'''#.",
".&..)*.+!.'..%;.",
".&.=.)..*.*.=.;.",
".=.).-..*.*.@.%.",
".@.#.).-..).).!.",
".-.,.-.-..).-.+.",
".).%.-.*%.@.).'.",
".#..-;.#,.=..=*.",
".*$$$$$;;%!+'#).",
" .............. "};
