/* XPM */
static char * glade_edit_user_menu_xpm[] = {
"16 16 16 1",
" 	c None",
".	c #020204",
"+	c #FEFEE8",
"@	c #FEF2BC",
"#	c #FDDDA6",
"$	c #FECE88",
"%	c #C99254",
"&	c #F4C586",
"*	c #D9A864",
"=	c #AA6A54",
"-	c #D4B564",
";	c #B29644",
">	c #8E721C",
",	c #E2D6B4",
"'	c #9A8264",
")	c #BAA284",
"                ",
"   ....    ...  ",
"  .+@#$.  .+#%. ",
" .+#.&.*. .&*=. ",
" .@$.&.%. ..... ",
" .#.&$*.  .-;>. ",
" .$-...   .-;>. ",
"  .*%.    .-;>. ",
"   ..     .-;>. ",
"          .-;>. ",
"          .-;>. ",
"          ..... ",
"          .+,'. ",
"           .).  ",
"            .   ",
"                "};
