/* XPM */
static char * glade_send_contact_menu_xpm[] = {
"16 16 19 1",
" 	c None",
".	c #020204",
"+	c #FDF1C0",
"@	c #FADA96",
"#	c #F7CB86",
"$	c #F4C579",
"%	c #EEBE72",
"&	c #DAAA5A",
"*	c #E6B869",
"=	c #D6A656",
"-	c #42AE2E",
";	c #7ED66A",
">	c #8EDE7E",
",	c #8ADA7A",
"'	c #368A26",
")	c #5ACA42",
"!	c #225A1A",
"~	c #2E721E",
"{	c #26621A",
"                ",
"         ....   ",
"        .++@#.  ",
"       .+.$.%&. ",
"       .+.$.*=. ",
"       ..$$$.*. ",
"       .#...%#. ",
"  .......==**.  ",
"   .-;>,.....   ",
"    .')).       ",
"   .;)!'.       ",
"  .;)~.{.       ",
" .;)~. ..       ",
"  .~.   .       ",
"   .            ",
"                "};
