/* XPM */
static char * receive_contact_xpm[] = {
"16 16 19 1",
" 	c None",
".	c #020202",
"+	c #020206",
"@	c #F69696",
"#	c #E26669",
"$	c #FDF2C1",
"%	c #FADA96",
"&	c #F7CB86",
"*	c #C23E4A",
"=	c #F4C579",
"-	c #EEBE72",
";	c #DAAA5A",
">	c #D2525E",
",	c #9E222E",
"'	c #FEEEBE",
")	c #E9BA6D",
"!	c #D6A656",
"~	c #92161C",
"{	c #DEB25E",
"                ",
"                ",
"                ",
"  ..     ++++   ",
" .@#.   +$$%&+  ",
" .#*.  +$+=+-;+ ",
" .>,.  +'+=+)!+ ",
" .>,.  ++===+)+ ",
" .>,.  +&+++-&+ ",
" .*~.   +!!){+  ",
"  ..     ++++   ",
"                ",
"  ..            ",
" .#~.           ",
"  ..            ",
"                "};
