/* XPM */
static char * glade_unlock_key_xpm[] = {
"24 24 45 1",
" 	c None",
".	c #000000",
"+	c #FFE7A8",
"@	c #F7CA7C",
"#	c #D5A951",
"$	c #B58A32",
"%	c #9C721F",
"&	c #875E12",
"*	c #7D560E",
"=	c #DFDFDF",
"-	c #DDDDDD",
";	c #D1D1D1",
">	c #B3B3B3",
",	c #454545",
"'	c #9A9A9A",
")	c #E7E7E7",
"!	c #BEBEBE",
"~	c #B8B8B8",
"{	c #6B6B6B",
"]	c #656565",
"^	c #E5E5E5",
"/	c #C8C8C8",
"(	c #AEAEAE",
"_	c #A7A7A7",
":	c #808080",
"<	c #7B7B7B",
"[	c #939393",
"}	c #8C8C8C",
"|	c #7F7F7F",
"1	c #606060",
"2	c #A3A3A3",
"3	c #868686",
"4	c #787878",
"5	c #5B5B5B",
"6	c #B1B1B1",
"7	c #727272",
"8	c #555555",
"9	c #A8A8A8",
"0	c #505050",
"a	c #B6B6B6",
"b	c #646464",
"c	c #4A4A4A",
"d	c #9E9E9E",
"e	c #757575",
"f	c #707070",
"                        ",
"                        ",
"                        ",
"                        ",
"         ......         ",
"        .+@#$%&.        ",
"       .+@....*&.       ",
"       .@.    ...       ",
"       .#.              ",
"       .$........       ",
"      ..%.=-;>,',.      ",
"     .).&.!~>',{,].     ",
"     .^/.(_:<[},|1.     ",
"    ....(_:..23|45.     ",
"    .@@@.....6|478.     ",
"    .@**##$%*.97{0.     ",
"    .@##......a{bc.     ",
"    ....[}d..a{bc,.     ",
"      .ef{]|<80c,.      ",
"       ..........       ",
"                        ",
"                        ",
"                        ",
"                        "};
