/* XPM */
static char * glade_edit_user_xpm[] = {
"24 24 38 1",
" 	c None",
".	c #000000",
"+	c #CBA429",
"@	c #CAA328",
"#	c #C8A126",
"$	c #CFA92E",
"%	c #D6B137",
"&	c #D9B43C",
"*	c #C9A227",
"=	c #D5B036",
"-	c #DCB840",
";	c #E7C652",
">	c #CEA82D",
",	c #DDB941",
"'	c #F3D970",
")	c #F8E282",
"!	c #EBCB5A",
"~	c #D8B239",
"{	c #E8C754",
"]	c #E9C856",
"^	c #020204",
"/	c #ECCC5C",
"(	c #FEFEE8",
"_	c #FDDDA6",
":	c #C99254",
"<	c #E3C14C",
"[	c #F1D468",
"}	c #F4C586",
"|	c #D9A864",
"1	c #AA6A54",
"2	c #DEBA42",
"3	c #F3D86F",
"4	c #D4B564",
"5	c #B29644",
"6	c #8E721C",
"7	c #E2D6B4",
"8	c #9A8264",
"9	c #BAA284",
"                        ",
"                        ",
"                        ",
"          ....          ",
"        ..+@#@..        ",
"       .$%&%$*@=.       ",
"      .$-..;-..>,.      ",
"      .%;')';%@+&.      ",
"     .+&!).)!.+@~{.     ",
"     .@%;'.';.@+&]. ^^^ ",
"     .#$.;!;-$#.,/.^(_:^",
"     .@*.%&%$*@.<[.^}|1^",
"      .@#.+@#@.2!. ^^^^^",
"      .=>+....2]3. ^456^",
"       .,&~&,<!3.  ^456^",
"        ..{]/[..   ^456^",
"          ....     ^456^",
"                   ^456^",
"                   ^456^",
"                   ^^^^^",
"                   ^(78^",
"                    ^9^ ",
"                     ^  ",
"                        "};
