/* XPM */
static char * receive_gci_xpm[] = {
"16 16 19 1",
" 	c None",
".	c #020205",
"+	c #F8D08A",
"@	c #F2C477",
"#	c #FDF2C1",
"$	c #FADEA2",
"%	c #B28E56",
"&	c #EEBE72",
"*	c #F6CA82",
"=	c #E6B769",
"-	c #F69696",
";	c #E26669",
">	c #C23E4A",
",	c #D2525E",
"'	c #9E222E",
")	c #DAAA5A",
"!	c #FEEEBE",
"~	c #D6A656",
"{	c #92161C",
"                ",
"      ..  ....  ",
"     .+@..#$+%. ",
"  .. .&@...*.=. ",
" .-;. .. .+@@&. ",
" .;>.   ....=%. ",
" .,'.  .##$+..  ",
" .,'. .#.@.&).  ",
" .,'. .!.@.=~.  ",
" .>{. ..@@@.=.  ",
"  ..  .*...&*.  ",
"       .~~==.   ",
"  ..    ....    ",
" .;{.           ",
"  ..            ",
"                "};
