/* XPM */
static char * glade_users_xpm[] = {
"24 24 10 1",
" 	c None",
".	c #020204",
"+	c #FEFEE8",
"@	c #FEF2BC",
"#	c #FDDDA6",
"$	c #FECE88",
"%	c #F4C586",
"&	c #D9A864",
"*	c #C99254",
"=	c #D4B564",
"                        ",
"   ....          ....   ",
"  .+@#$.        .+@#$.  ",
" .+#.%.&.      .+#.%.&. ",
" .@$.%.*.      .@$.%.*. ",
" .#.%$&.       .#.%$&.  ",
" .$=...        .$=...   ",
"  .&*.    ....  .&*.    ",
"   ..    .+@#$.  ..     ",
"        .+#.%.&.        ",
"        .@$.%.*.        ",
"        .#.%$&.         ",
"        .$=...          ",
"         .&*.           ",
"          ..            ",
"   ....          ....   ",
"  .+@#$.        .+@#$.  ",
" .+#.%.&.      .+#.%.&. ",
" .@$.%.*.      .@$.%.*. ",
" .#.%$&.       .#.%$&.  ",
" .$=...        .$=...   ",
"  .&*.          .&*.    ",
"   ..            ..     ",
"                        "};
