/* XPM */
static char * glade_add_group_menu_xpm[] = {
"16 16 17 1",
" 	c None",
".	c #020204",
"+	c #826E54",
"@	c #8E7E6C",
"#	c #9E8E7C",
"$	c #AEA08C",
"%	c #BAAE98",
"&	c #E0D9CF",
"*	c #D2CAC0",
"=	c #C6BEB0",
"-	c #EDE9DF",
";	c #8EC3F1",
">	c #6AA2E4",
",	c #5995D7",
"'	c #4783C7",
")	c #3A76BC",
"!	c #1A5794",
"                ",
" ....           ",
".+@#$.          ",
".@#$%.......    ",
".....&**==%$.   ",
".--&&**==%%$.   ",
".-&&**=%%$...   ",
".&&**==%%.;>.   ",
".&**=%%%$.;,.   ",
".**==%%...;,... ",
"..=%%%.;;;,'')!.",
" ......>,,''!!!.",
"       ...'!... ",
"         .)!.   ",
"         .!!.   ",
"          ..    "};
