/* XPM */
static char * glade_sendasooo_xpm[] = {
"24 24 30 1",
" 	c None",
".	c #020204",
"+	c #DDDDDC",
"@	c #CACAC9",
"#	c #D4D4D4",
"$	c #B6B6B4",
"%	c #E3E3E4",
"&	c #BFBFBD",
"*	c #AEAEB0",
"=	c #A0A09F",
"-	c #A6A6A4",
";	c #969694",
">	c #EAEAEC",
",	c #8D8D8C",
"'	c #828284",
")	c #7A7A7C",
"!	c #333333",
"~	c #727274",
"{	c #9A9A9A",
"]	c #727272",
"^	c #777777",
"/	c #7C7C7C",
"(	c #818181",
"_	c #858585",
":	c #9F9F9F",
"<	c #8B8B8B",
"[	c #8F8F8F",
"}	c #A2A2A2",
"|	c #959595",
"1	c #A6A6A6",
"                        ",
"                        ",
"         ....           ",
"       ..+@@@..         ",
"      .++#+#@$$.        ",
"     .++%.+..&*=.       ",
"    .#++%%%%#@$-;.      ",
"    .##..>...@.=,.      ",
"    .###+%%%@&-;,.      ",
"     .@@@#..&.=,'.      ",
"      .&&$&$*=,').      ",
"       ..*-=;,').!      ",
"        !.....)~.{!     ",
"       !]^/(!.~.{!      ",
"       !^/(_.~.{:!      ",
"      !^/!!<[.{:!       ",
"      !/(_<!!{:}!       ",
"     !/(_<[|{!}!        ",
"     !(_!!|{:}1!        ",
"    !(_<[|!!}1!         ",
"     !![|{:}11!         ",
"       !!:}11!          ",
"         !!11!          ",
"           !!           "};
