/* XPM */
static char * glade_sendasnormal_xpm[] = {
"24 24 29 1",
" 	c None",
".	c #000000",
"+	c #909090",
"@	c #989898",
"#	c #A1A1A1",
"$	c #A9A9A9",
"%	c #B3B3B3",
"&	c #BCBCBC",
"*	c #C5C5C5",
"=	c #CFCFCF",
"-	c #D7D7D7",
";	c #E1E1E1",
">	c #EAEAEA",
",	c #F4F4F4",
"'	c #F9F9F9",
")	c #333333",
"!	c #FFFFFF",
"~	c #B6B6B4",
"{	c #BFBFBD",
"]	c #AEAEB0",
"^	c #A0A09F",
"/	c #CACAC9",
"(	c #A6A6A4",
"_	c #969694",
":	c #8D8D8C",
"<	c #D4D4D4",
"[	c #828284",
"}	c #7A7A7C",
"|	c #727274",
"                        ",
"                        ",
"          .             ",
"         .+..           ",
"         .@#$..         ",
"        .@#$%&*...      ",
"        .#..&*=-;>.     ",
"       .#$%&..-;>.      ",
"       .$%&*=-.>,.      ",
"      .$%..=-;>,.       ",
"      .%&*=..>,'.       ",
"     .%&*=-;>.'.)       ",
"     .&*..;>,'!.~)      ",
"    .&*=-;..'!.{]^)     ",
"     ..-;>,'!!./~(_)    ",
"      )..,'!!.)/)^:)    ",
"      )<<..!!./{(_:)    ",
"       )///..){)^:[)    ",
"        ){{~{~]^:[})    ",
"         ))](^_:[})     ",
"           )))))}|)     ",
"               )|)      ",
"              )|)       ",
"               )        "};
