/* XPM */
static char * glade_noclose_xpm[] = {
"24 24 3 1",
" 	c None",
".	c #AA0000",
"+	c #000000",
"                        ",
"                        ",
"         ......         ",
"       ..........       ",
"     ....      ....     ",
"    ...         ....    ",
"    ..         .....    ",
"   ..          ... ..   ",
"   ..         ...  ..   ",
"  ..       + ...++  ..  ",
"  ..       +...++++ ..  ",
"  ..       ... +++  ..  ",
"  ..      ...++++   ..  ",
"  ..     ... +++    ..  ",
"  ..    ...  ++++   ..  ",
"   ..  ...  ++++++ ..   ",
"   .. ...   ++ ++++..   ",
"    ....   ++   ++..    ",
"    ....   +     ...    ",
"     ....      ....     ",
"       ..........       ",
"         ......         ",
"                        ",
"                        "};
