/* XPM */
static char * glade_delete_user_menu_xpm[] = {
"16 16 16 1",
" 	c None",
".	c #020204",
"+	c #FEF8C8",
"@	c #FED996",
"#	c #FECE88",
"$	c #F5C579",
"%	c #D2A654",
"&	c #C69644",
"*	c #E0B060",
"=	c #79C5EF",
"-	c #6ABAEC",
";	c #53A6D9",
">	c #4094CC",
",	c #287CB4",
"'	c #055B8F",
")	c #1A72A4",
"                ",
"   ....         ",
"  .++@#.        ",
" .+@.$.%.       ",
" .+#.$.&.       ",
" .@.$#*.        ",
" .#*...         ",
"  .%&.          ",
"   ..           ",
"       ........ ",
"      .===-;>,'.",
"      .;;>,))''.",
"       ........ ",
"                ",
"                ",
"                "};
