/* XPM */
static char * glade_ooochat_xpm[] = {
"16 16 17 1",
" 	c None",
".	c #020204",
"+	c #DDDDDC",
"@	c #CACAC9",
"#	c #D4D4D4",
"$	c #B6B6B4",
"%	c #E3E3E4",
"&	c #BFBFBD",
"*	c #AEAEB0",
"=	c #A0A09F",
"-	c #A6A6A4",
";	c #969694",
">	c #EAEAEC",
",	c #8D8D8C",
"'	c #828284",
")	c #7A7A7C",
"!	c #727274",
"                ",
"      ....      ",
"    ..+@@@..    ",
"   .++#+#@$$.   ",
"  .++%.+..&*=.  ",
" .#++%%%%#@$-;. ",
" .##..>...@.=,. ",
" .###+%%%@&-;,. ",
"  .@@@#..&.=,'. ",
"   .&&$&$*=,'). ",
"    ..*-=;,').  ",
"      .....)!.  ",
"          .!.   ",
"         .!.    ",
"          .     ",
"                "};
