/* XPM */
static char * glade_new_user_menu_xpm[] = {
"16 16 16 1",
" 	c None",
".	c #020204",
"+	c #FEF8C8",
"@	c #FEDE9C",
"#	c #FED08A",
"$	c #F2C274",
"%	c #D2A654",
"&	c #C69644",
"*	c #E0B060",
"=	c #8AC0F0",
"-	c #649EE0",
";	c #96CAF4",
">	c #538FD1",
",	c #3F7BC1",
"'	c #175591",
")	c #225E9C",
"                ",
"   ....         ",
"  .++@#.        ",
" .+@.$.%.       ",
" .+#.$.&.       ",
" .@.$#*.        ",
" .#*...   ..    ",
"  .%&.   .=-.   ",
"   ..    .;>.   ",
"       ...;>... ",
"      .==;>>,,'.",
"      .-->>,)''.",
"       ...,)... ",
"         .,'.   ",
"         .''.   ",
"          ..    "};
