/* XPM */
static char * glade_alert_xpm[] = {
"34 34 220 2",
"  	c None",
". 	c #100F0F",
"+ 	c #000000",
"@ 	c #060606",
"# 	c #0B0B0B",
"$ 	c #74736E",
"% 	c #B4B19F",
"& 	c #F9F1CC",
"* 	c #F7EAA6",
"= 	c #B3A767",
"- 	c #736930",
"; 	c #454545",
"> 	c #EDEDEC",
", 	c #FFFCF1",
"' 	c #FEED91",
") 	c #FEDF49",
"! 	c #FCD828",
"~ 	c #FEDF46",
"{ 	c #FEE460",
"] 	c #DFC330",
"^ 	c #3B3309",
"/ 	c #1E1E1E",
"( 	c #020202",
"_ 	c #999998",
": 	c #FFFFFB",
"< 	c #FEEE99",
"[ 	c #FCD621",
"} 	c #FCD416",
"| 	c #FCD51B",
"1 	c #FCDA30",
"2 	c #856F0C",
"3 	c #8E8A7A",
"4 	c #FFFAE2",
"5 	c #FEE258",
"6 	c #FBD316",
"7 	c #FAD116",
"8 	c #F7D016",
"9 	c #F6CF16",
"0 	c #F9D016",
"a 	c #FBD626",
"b 	c #6C5A09",
"c 	c #2B2A28",
"d 	c #74715E",
"e 	c #FFFBE3",
"f 	c #FEE45F",
"g 	c #8E760D",
"h 	c #655509",
"i 	c #635409",
"j 	c #CFAE13",
"k 	c #EDC815",
"l 	c #FBD627",
"m 	c #544708",
"n 	c #4E4A38",
"o 	c #FFFAE0",
"p 	c #FEE771",
"q 	c #675709",
"r 	c #564908",
"s 	c #D8B514",
"t 	c #F3CC16",
"u 	c #352D05",
"v 	c #030303",
"w 	c #15140F",
"x 	c #F3EABB",
"y 	c #FEEC8E",
"z 	c #A1870F",
"A 	c #3D3305",
"B 	c #C1A211",
"C 	c #E2BE14",
"D 	c #D9B714",
"E 	c #100E03",
"F 	c #282727",
"G 	c #020201",
"H 	c #B8AD6E",
"I 	c #FEF3BB",
"J 	c #FCD51D",
"K 	c #AE9210",
"L 	c #3E3405",
"M 	c #B29610",
"N 	c #DAB814",
"O 	c #FCD519",
"P 	c #917A0D",
"Q 	c #534C2A",
"R 	c #FFF6CA",
"S 	c #FCDE42",
"T 	c #E7C114",
"U 	c #181402",
"V 	c #AC900F",
"W 	c #D6B413",
"X 	c #F2CB16",
"Y 	c #FCD823",
"Z 	c #F1CA16",
"` 	c #3B3205",
" .	c #171716",
"..	c #090805",
"+.	c #ECDE8C",
"@.	c #FEEC8A",
"#.	c #E8C315",
"$.	c #282103",
"%.	c #AB8F0F",
"&.	c #D5B313",
"*.	c #FCD61E",
"=.	c #C4A511",
"-.	c #73692E",
";.	c #FFF5BD",
">.	c #EAC515",
",.	c #0F0D01",
"'.	c #443906",
").	c #AD910F",
"!.	c #504307",
"~.	c #100F0E",
"{.	c #0F0D07",
"].	c #F2E287",
"^.	c #FEE772",
"/.	c #251F03",
"(.	c #5B4C08",
"_.	c #B19510",
":.	c #F5CE16",
"<.	c #FCD622",
"[.	c #CFAE12",
"}.	c #736626",
"|.	c #FEF3B5",
"1.	c #F0C915",
"2.	c #4E4207",
"3.	c #5D4F08",
"4.	c #B79910",
"5.	c #DFBB14",
"6.	c #5E5008",
"7.	c #060503",
"8.	c #ECD665",
"9.	c #FEE873",
"0.	c #7F6C0B",
"a.	c #846E0B",
"b.	c #BEA011",
"c.	c #E3BF14",
"d.	c #B99C10",
"e.	c #4D4414",
"f.	c #FEEE9A",
"g.	c #A68C0F",
"h.	c #171402",
"i.	c #977E0D",
"j.	c #C5A611",
"k.	c #382F05",
"l.	c #B29A24",
"m.	c #2B2404",
"n.	c #A0860E",
"o.	c #CEAD12",
"p.	c #816D0B",
"q.	c #060501",
"r.	c #F6D93E",
"s.	c #0F0C01",
"t.	c #4C4007",
"u.	c #C6A712",
"v.	c #332B06",
"w.	c #FEE35D",
"x.	c #957D0D",
"y.	c #B99C11",
"z.	c #DEBA14",
"A.	c #FCD419",
"B.	c #221D03",
"C.	c #645409",
"D.	c #FEE35B",
"E.	c #6F5E0A",
"F.	c #544608",
"G.	c #CCAC12",
"H.	c #E0BD14",
"I.	c #705E0A",
"J.	c #FCDD3B",
"K.	c #CAAA12",
"L.	c #EEC815",
"M.	c #4D4007",
"N.	c #615109",
"O.	c #DDB914",
"P.	c #362D05",
"Q.	c #261F03",
"R.	c #88720C",
"S.	c #ECC615",
"T.	c #DBB814",
"U.	c #403605",
"V.	c #443A06",
"W.	c #A1880F",
"X.	c #2B2504",
"Y.	c #100D02",
"Z.	c #715F0A",
"`.	c #B79A10",
" +	c #7B670B",
".+	c #191502",
"++	c #A2880F",
"@+	c #CBAB12",
"#+	c #5A4C08",
"$+	c #050400",
"%+	c #A78C0F",
"&+	c #534508",
"*+	c #473C06",
"=+	c #8F790D",
"-+	c #D0AF13",
";+	c #87710C",
">+	c #090801",
",+	c #86710C",
"'+	c #D1B113",
")+	c #BB9E11",
"!+	c #6E5B09",
"~+	c #312904",
"{+	c #BFA111",
"]+	c #E5C014",
"^+	c #E4C014",
"/+	c #C9A812",
"(+	c #73610A",
"_+	c #262103",
":+	c #110F02",
"<+	c #6E5C0A",
"[+	c #836E0C",
"}+	c #B89A11",
"|+	c #B79A11",
"1+	c #B59811",
"2+	c #B39710",
"3+	c #A88D0F",
"4+	c #7F6B0B",
"5+	c #372E05",
"6+	c #151102",
"7+	c #070707",
"                            . + + + + .                             ",
"                        @ + + + + + + + + @                         ",
"                      + + + + + + + + + + + +                       ",
"                    + + + # $ % & * = - # + + +                     ",
"                  + + + ; > , ' ) ! ~ { ] ^ + + +                   ",
"                / + ( _ : < [ } } } } | 1 [ 2 ( + /                 ",
"              + + + 3 4 5 } } 6 7 8 9 8 0 a 0 b + + +               ",
"            c + + d e f } } 6 8 g h i j k 9 l 8 m + + c             ",
"          + + + n o p } } } 8 q + + + r s k 0 ! t u + + +           ",
"          v + w x y } } } 6 z + + + + A B C 9 } [ D E + v           ",
"        F + G H I J } } } 7 K + + + + L M N t } O 6 P G + F         ",
"      + + + Q R S } } } } 7 T + + + + U V W X } } Y Z ` + + +       ",
"       .+ ..+.@.} } } } } 6 #.+ + + + $.%.&.X } } } *.=...+  .      ",
"    + + + -.;.[ } } } } } } >.,.+ + + '.).s X } } } | t !.+ + +     ",
"    ~.+ {.].^.} } } } } } } k /.+ + + (._.N :.} } } } <.[.{.+ ~.    ",
"  + + + }.|.J } } } } } } } 1.2.+ + + 3.4.5.8 } } } } O X 6.+ + +   ",
"  + + 7.8.9.} } } } } } } } X 0.+ + + a.b.c.0 } } } } } J d.7.+ +   ",
"  + + e.f.[ } } } } } } } } 9 g.+ + h.i.j.#.7 } } } } } J #.k.+ +   ",
"+ + + l.' } } } } } } } } } 0 c.+ + m.n.o.k 6 } } } } } } 7 p.+ + + ",
"+ + q.r.~ } } } } } } } } } 6 #.s.+ t.V &.X } } } } } } } [ u.q.+ + ",
"+ + v.w.O } } } } } } } } } } k /.+ x.y.z.9 } } } } } } } A.s B.+ + ",
"+ + C.D.} } } } } } } } } } } Z E.F.4.G.#.0 } } } } } } } } H.k.+ + ",
"+ + I.J.} } } } } } } } } } } t H.o.K.N L.6 } } } } } } } } C M.+ + ",
"+ + N.[ } } } } } } } } } } 6 O.P.Q.R.D S.0 } } } } } } } } T.U.+ + ",
"+ + V.0 } } } } } } } } } } 8 k.+ + + W.5.X 6 } } } } } } } o.X.+ + ",
"+ + Y.S.0 } } } } } } } } } t + + + + Z.[.S.6 } } } } } } 1.`.Y.+ + ",
"+ + +  +#.6 } } } } } } } } Z !.+ + .+++@+>.7 } } } } } 8 G.#++ +   ",
"  + + $+%+T 7 } } } } } } } t z.&+*+=+M &.1.6 } } } } t -+;+$++     ",
"  + + + >+,+'+L.6 } } } } } 0 S.&.=.B '+T 9 } } } :.z.)+!+>++ +     ",
"    + + + + ~+2 {+&.T :.6 } 6 9 k ]+^+S.:.9 L.z./+M (+_++ + +       ",
"      + + + + + :+L <+[+).M }+}+|+1+1+2+).3+4+h 5+:++ + + +         ",
"          + + + + + + + + >+6+6+6+6+6+6+>++ + + + + + +             ",
"              + + + + + + + + + + + + + + + + + + 7+                ",
"                    + + + + + + + + + + + + + +                     "};
