/* XPM */
static char * glade_send_gci_xpm[] = {
"24 24 18 1",
" 	c None",
".	c #020204",
"+	c #D9B43C",
"@	c #C9A227",
"#	c #F1D468",
"$	c #E7C652",
"%	c #82681A",
"&	c #DDB941",
"*	c #000000",
"=	c #42AE2E",
"-	c #7ED66A",
";	c #8EDE7E",
">	c #8ADA7A",
",	c #368A26",
"'	c #5ACA42",
")	c #225A1A",
"!	c #2E721E",
"~	c #26621A",
"                        ",
"                        ",
"                        ",
"                        ",
"       ....             ",
"      .+++@.  .....     ",
"     .+#.$.#..@@+++.    ",
"     .+#.$.#.@#%$.#+.   ",
"     .@%$##@.@%.$.#+.   ",
"     .@.%%%@.@@@#$%@.   ",
"     .@&...@.@.%%%.@.   ",
"      .&&&&..@&...@@.   ",
"       ..*.....@@@@.    ",
"         .+@+@@....     ",
"        .+..$..@.       ",
"  .......+#####@.       ",
"   .=-;>.@%...%@.       ",
"    .,''.@@%%%@@.       ",
"   .-'),..&&&&&.        ",
"  .-'!.~. ..*..         ",
" .-'!. ..               ",
"  .!.   .               ",
"   .                    ",
"                        "};
