/* XPM */
static char * gnome_userinfo_xpm[] = {
"20 20 17 1",
" 	c None",
".	c #020204",
"+	c #8C7124",
"@	c #8E7E6C",
"#	c #9C8A74",
"$	c #A99984",
"%	c #FEFEFC",
"&	c #E2D9CB",
"*	c #CE8A74",
"=	c #B3A68F",
"-	c #C0B6A4",
";	c #F2C6AC",
">	c #D4B46A",
",	c #AA6A54",
"'	c #CFC7BC",
")	c #EDE9DF",
"!	c #B29644",
"                    ",
"                    ",
"                    ",
"   ....      ...    ",
"  .+@#$.    .%&*.   ",
"  .@#=-......;>,.   ",
"  .....&''--.....   ",
"  .))&&'''--.>!+.   ",
"  .)&&'''--=.>!+.   ",
"  .&&&''--=$.>!+.   ",
"  .&''--=-$$.>!+.   ",
"  .'''--=$$$.>!+.   ",
"  ..---==$##.>!+.   ",
"   ..............   ",
"            .%&@.   ",
"             .=.    ",
"              .     ",
"                    ",
"                    ",
"                    "};
