/* XPM */
static char * gnome_gabber_xpm[] = {
"20 20 82 1",
" 	c None",
".	c #EDECEA",
"+	c #F7F6F6",
"@	c #E0DBD8",
"#	c #6F6660",
"$	c #C7C0B9",
"%	c #756C66",
"&	c #C6C4C2",
"*	c #B7ACA3",
"=	c #000000",
"-	c #717272",
";	c #837973",
">	c #9E9B99",
",	c #7D746D",
"'	c #8D8E8F",
")	c #F3F3F3",
"!	c #D3CFCB",
"~	c #989899",
"{	c #999896",
"]	c #7B7979",
"^	c #CBC5C0",
"/	c #3D3631",
"(	c #A9AAAB",
"_	c #B2AFAD",
":	c #655B53",
"<	c #564B42",
"[	c #5B5047",
"}	c #5B5249",
"|	c #6D6863",
"1	c #EEECEA",
"2	c #939190",
"3	c #5B4F45",
"4	c #5C4F46",
"5	c #50463E",
"6	c #4F453E",
"7	c #51473E",
"8	c #50443A",
"9	c #9D9996",
"0	c #EFEEEC",
"a	c #A79F99",
"b	c #9E9A96",
"c	c #94908C",
"d	c #625449",
"e	c #463D37",
"f	c #26211D",
"g	c #423B34",
"h	c #625B54",
"i	c #8B8581",
"j	c #5E5146",
"k	c #4B423B",
"l	c #544A42",
"m	c #403831",
"n	c #534840",
"o	c #5D554E",
"p	c #53473E",
"q	c #5D5148",
"r	c #463E37",
"s	c #443D35",
"t	c #574B41",
"u	c #8C8682",
"v	c #645D57",
"w	c #554A40",
"x	c #443C35",
"y	c #3F3730",
"z	c #544941",
"A	c #51463D",
"B	c #5B514A",
"C	c #3C342D",
"D	c #4C4139",
"E	c #7D7874",
"F	c #817B76",
"G	c #3C332B",
"H	c #93908D",
"I	c #362E27",
"J	c #372F29",
"K	c #59524D",
"L	c #7A7876",
"M	c #2C2621",
"N	c #433E3B",
"O	c #211C18",
"P	c #1F1A15",
"Q	c #646363",
"                    ",
"                    ",
"       . +@#        ",
"       $%&*=-       ",
"       ;=>,='       ",
"     )! ~ {]        ",
"     ^/(_:<[}|      ",
"     1=23456789     ",
"    0abcdefgf<h     ",
"     ==ijkflmno     ",
"        pqrfstu     ",
"        vwxyzA      ",
"         BCfDE      ",
"         FGf6       ",
"         HIJK       ",
"         L=MN       ",
"          OP=       ",
"          Q=        ",
"                    ",
"                    "};
