/* XPM */
static char * gnome_groupchat_xpm[] = {
"20 20 9 1",
" 	c None",
".	c #020204",
"+	c #D9B43C",
"@	c #C9A227",
"#	c #F1D468",
"$	c #E7C652",
"%	c #82681A",
"&	c #DDB941",
"*	c #000000",
"                    ",
"                    ",
"    ....            ",
"   .+++@.  .....    ",
"  .+#.$.#..@@+++.   ",
"  .+#.$.#.@#%$.#+.  ",
"  .@%$##@.@%.$.#+.  ",
"  .@.%%%@.@@@#$%@.  ",
"  .@&...@.@.%%%.@.  ",
"   .&&&&..@&...@@.  ",
"    ..*.....@@@@.   ",
"      .+@+@@....    ",
"     .+..$..@.      ",
"     .+#####@.      ",
"     .@%...%@.      ",
"     .@@%%%@@.      ",
"      .&&&&&.       ",
"       ..*..        ",
"                    ",
"                    "};
