/* XPM */
static char * gnome_message_xpm[] = {
"20 20 16 1",
" 	c None",
".	c #000000",
"+	c #909090",
"@	c #989898",
"#	c #A1A1A1",
"$	c #A9A9A9",
"%	c #B3B3B3",
"&	c #BCBCBC",
"*	c #C5C5C5",
"=	c #CFCFCF",
"-	c #D7D7D7",
";	c #E1E1E1",
">	c #EAEAEA",
",	c #F4F4F4",
"'	c #F9F9F9",
")	c #FFFFFF",
"                    ",
"                    ",
"        .           ",
"       .+..         ",
"       .@#$..       ",
"      .@#$%&*...    ",
"      .#..&*=-;>.   ",
"     .#$%&..-;>.    ",
"     .$%&*=-.>,.    ",
"    .$%..=-;>,.     ",
"    .%&*=..>,'.     ",
"   .%&*=-;>.'.      ",
"   .&*..;>,').      ",
"  .&*=-;..').       ",
"   ..-;>,')).       ",
"     ..,')).        ",
"       ..)).        ",
"         ..         ",
"                    ",
"                    "};
