/* XPM */
static char * gnome_s10n_xpm[] = {
"20 20 21 1",
" 	c None",
".	c #020202",
"+	c #727272",
"@	c #FEFEFE",
"#	c #1C1C1C",
"$	c #585858",
"%	c #BBBBBB",
"&	c #3E3E3E",
"*	c #D3D3D3",
"=	c #D1D1D1",
"-	c #949494",
";	c #A0A0A0",
">	c #3D3D3D",
",	c #D49C82",
"'	c #BFBFBF",
")	c #2C2C2C",
"!	c #91593C",
"~	c #D69E84",
"{	c #A1A1A1",
"]	c #444444",
"^	c #4A4A4A",
"                    ",
"                    ",
"        .....       ",
"        .+@@@.+     ",
"      #.$%%%%%.     ",
"      #%..$%%+.     ",
"      #%@......     ",
"      #%@@%%%&.     ",
"      #%*%@=-.      ",
"      .+@*=;>.      ",
"      .,@@'-)       ",
"      .!~~~~.       ",
"      .@!!!!.       ",
"     .@%@%-.        ",
"     .@@={].        ",
"     .@*%-.         ",
"     .^%+].         ",
"      ...           ",
"                    ",
"                    "};
