/* XPM */
static char * gpg_encrypted_xpm[] = {
"19 16 54 1",
" 	c None",
".	c #000000",
"+	c #FFE7A8",
"@	c #F7CA7C",
"#	c #D5A951",
"$	c #B58A32",
"%	c #9C721F",
"&	c #875E12",
"*	c #7D560E",
"=	c #B48931",
"-	c #C89D44",
";	c #E1B560",
">	c #DFDFDF",
",	c #DDDDDD",
"'	c #D1D1D1",
")	c #B3B3B3",
"!	c #9B711E",
"~	c #E7E7E7",
"{	c #BEBEBE",
"]	c #B8B8B8",
"^	c #9A9A9A",
"/	c #6E4808",
"(	c #656565",
"_	c #E5E5E5",
":	c #C8C8C8",
"<	c #AEAEAE",
"[	c #A7A7A7",
"}	c #808080",
"|	c #7B7B7B",
"1	c #939393",
"2	c #8C8C8C",
"3	c #7F7F7F",
"4	c #606060",
"5	c #DBDBDB",
"6	c #C3C3C3",
"7	c #A3A3A3",
"8	c #868686",
"9	c #787878",
"0	c #5B5B5B",
"a	c #CFCFCF",
"b	c #A1A1A1",
"c	c #B1B1B1",
"d	c #727272",
"e	c #555555",
"f	c #A8A8A8",
"g	c #6B6B6B",
"h	c #505050",
"i	c #757575",
"j	c #B6B6B6",
"k	c #646464",
"l	c #4A4A4A",
"m	c #9E9E9E",
"n	c #454545",
"o	c #707070",
"         ......    ",
"        .+@#$%&.   ",
"       .+@....*&.  ",
"       .@.    .=.  ",
"       .#.    .-.  ",
"       .$......;.  ",
"      ..%.>,').!.. ",
"     .~.&.{])^./.(.",
"     ._:.<[}|12.34.",
"     .56<[}..78390.",
"     .a{[b|..c39de.",
"     .{]b|....fdgh.",
"     .]b^i....jgkl.",
"     .)^12m..jgkln.",
"      .iog(3|ehln. ",
"       ..........  "};
