/* XPM */
static char * gpg_unsigned_xpm[] = {
"19 16 8 1",
" 	c None",
".	c #000000",
"+	c #C0C0C0",
"@	c #949494",
"#	c #3D3D3D",
"$	c #8EC3F1",
"%	c #5995D7",
"&	c #1A5794",
"                   ",
"                   ",
"                   ",
"                   ",
"                   ",
"                   ",
"                   ",
"                   ",
"                   ",
"                   ",
"            .....  ",
"            .++@.  ",
"             .+.   ",
"            .+@#.  ",
"           .$%%%&. ",
"           ....... "};
