/* XPM */
static char * gpg_unencrypted_xpm[] = {
"19 16 54 1",
" 	c None",
".	c #000000",
"+	c #FFE7A8",
"@	c #F7CA7C",
"#	c #D5A951",
"$	c #B58A32",
"%	c #9C721F",
"&	c #875E12",
"*	c #7D560E",
"=	c #B48931",
"-	c #C89D44",
";	c #E1B560",
">	c #9B711E",
",	c #DFDFDF",
"'	c #DDDDDD",
")	c #D1D1D1",
"!	c #B3B3B3",
"~	c #454545",
"{	c #E7E7E7",
"]	c #6E4808",
"^	c #BEBEBE",
"/	c #B8B8B8",
"(	c #9A9A9A",
"_	c #656565",
":	c #E5E5E5",
"<	c #C8C8C8",
"[	c #AEAEAE",
"}	c #A7A7A7",
"|	c #808080",
"1	c #7B7B7B",
"2	c #939393",
"3	c #8C8C8C",
"4	c #7F7F7F",
"5	c #606060",
"6	c #DBDBDB",
"7	c #C3C3C3",
"8	c #A3A3A3",
"9	c #868686",
"0	c #787878",
"a	c #5B5B5B",
"b	c #CFCFCF",
"c	c #A1A1A1",
"d	c #B1B1B1",
"e	c #727272",
"f	c #555555",
"g	c #A8A8A8",
"h	c #6B6B6B",
"i	c #505050",
"j	c #757575",
"k	c #B6B6B6",
"l	c #646464",
"m	c #4A4A4A",
"n	c #9E9E9E",
"o	c #707070",
"  ......           ",
" .+@#$%&.          ",
".+@....*&.         ",
".@.    .=.         ",
".#.    .-.         ",
".$.    .;........  ",
".%.   ..>.,')!~.~. ",
".&.  .{.].^/!(~.~_.",
" .   .:<.[}|123~45.",
"     .67[}|..8940a.",
"     .b^}c1..d40ef.",
"     .^/c1....gehi.",
"     ./c(j....khlm.",
"     .!(23n..khlm~.",
"      .joh_41fim~. ",
"       ..........  "};
