/* XPM */
static char * gpg_signed_xpm[] = {
"19 16 18 1",
" 	c None",
".	c #000000",
"+	c #040404",
"@	c #D69E84",
"#	c #91593C",
"$	c #BE8264",
"%	c #CE9274",
"&	c #F3BEAB",
"*	c #020202",
"=	c #030303",
"-	c #010101",
";	c #0B0B0B",
">	c #C0C0C0",
",	c #949494",
"'	c #1A5794",
")	c #3D3D3D",
"!	c #5995D7",
"~	c #8EC3F1",
"             ..    ",
"           +.@#.   ",
"          .#@#@.   ",
"         .#@$%&.   ",
"        *#@#@&@.   ",
"        .@$%&%.    ",
"       =@#@&%.     ",
"       -.;...      ",
"      +.           ",
"      .            ",
"     ..     .....  ",
"     .*     .>>,.  ",
"     -       .>.   ",
"    '       .>,).  ",
"    !!!!!! .~!!!'. ",
"           ....... "};
