/* XPM */
static char * gpg_badsigned_xpm[] = {
"19 16 6 1",
" 	c None",
".	c #000000",
"+	c #C0C0C0",
"@	c #949494",
"#	c #5995D7",
"$	c #1A5794",
"                   ",
"                   ",
"                   ",
"                   ",
"                   ",
"                   ",
"                   ",
"                   ",
"                   ",
"                 ..",
"             .. .+.",
"             .+.+@.",
"            #.++@#.",
"    $      #$.$.$#.",
"    #######$$.. .$.",
"     #####       .."};
