/* XPM */
static char * offline_xpm[] = {
"16 16 31 1",
" 	c None",
".	c #000000",
"+	c #7C7C7C",
"@	c #777777",
"#	c #5E5E5E",
"$	c #585858",
"%	c #818181",
"&	c #7D7D7D",
"*	c #6F6F6F",
"=	c #525252",
"-	c #4E4E4E",
";	c #B5B5B5",
">	c #888888",
",	c #787878",
"'	c #646464",
")	c #474747",
"!	c #424242",
"~	c #838383",
"{	c #5F5F5F",
"]	c #494949",
"^	c #3F3F3F",
"/	c #4F4F4F",
"(	c #696969",
"_	c #3B3B3B",
":	c #373737",
"<	c #757575",
"[	c #333333",
"}	c #CCCCCC",
"|	c #606060",
"1	c #515151",
"2	c #C0C0C0",
"                ",
"      ....      ",
"     .+@#$.     ",
"    .+%&*=-.    ",
"   .+%;>,')!.   ",
"   .@&;~@{]^.   ",
"   .#*,@{/(_.   ",
"   .$!{{/(~:.   ",
"    .-^<>~:.    ",
"     .!^':.     ",
"      ._:.      ",
"     ......     ",
"     .%}%|.     ",
"     ..1^..     ",
"      .2%.      ",
"       ..       "};
