/* XPM */
static char * online_xpm[] = {
"16 16 36 1",
" 	c None",
".	c #000000",
"+	c #FFD769",
"@	c #FFD161",
"#	c #EAB946",
"$	c #E4B441",
"%	c #FFDF74",
"&	c #FFDB6E",
"*	c #F9C857",
"=	c #DEAE3B",
"-	c #D7A735",
";	c #FFFFD1",
">	c #FFE47B",
",	c #FFD465",
"'	c #F0BF4D",
")	c #D1A12F",
"!	c #CA9B2A",
"~	c #FFE177",
"{	c #EBBA47",
"]	c #D3A331",
"^	c #C59626",
"/	c #DAAA38",
"(	c #F5C453",
"_	c #BD8E21",
":	c #C89929",
"<	c #ECBB48",
"[	c #B7891D",
"}	c #C69727",
"|	c #FFCF5F",
"1	c #B08219",
"2	c #818181",
"3	c #CCCCCC",
"4	c #606060",
"5	c #515151",
"6	c #3F3F3F",
"7	c #C0C0C0",
"                ",
"      ....      ",
"     .+@#$.     ",
"    .+%&*=-.    ",
"   .+%;>,')!.   ",
"   .@&;~@{]^.   ",
"   .#*,@{/(_.   ",
"   .$:<{/(~[.   ",
"    .-}|>~[.    ",
"     .!^'[.     ",
"      .[1.      ",
"     ......     ",
"     .2324.     ",
"     ..56..     ",
"      .72.      ",
"       ..       "};
