/* XPM */
static char * stalker_xpm[] = {
"16 16 37 1",
" 	c None",
".	c #000000",
"+	c #825633",
"@	c #956741",
"#	c #91643F",
"$	c #8E613C",
"%	c #734828",
"&	c #B98A63",
"*	c #B78861",
"=	c #8B5E39",
"-	c #62391E",
";	c #5F361C",
">	c #AA7B54",
",	c #704526",
"'	c #5B331A",
")	c #875A36",
"!	c #9B6D47",
"~	c #885B37",
"{	c #6B4123",
"]	c #4C2612",
"^	c #724727",
"/	c #6F4425",
"(	c #7E5230",
"_	c #7B4F2D",
":	c #774B2A",
"<	c #583018",
"[	c #492411",
"}	c #482310",
"|	c #693F22",
"1	c #653B1F",
"2	c #4E2813",
"3	c #673D20",
"4	c #643A1E",
"5	c #522B15",
"6	c #707070",
"7	c #FF0000",
"8	c #B20000",
"       .        ",
"      .+. .     ",
"     .@#$.%.    ",
"    .@&*=-;.    ",
"  ...#*>%,'...  ",
" .)+.$!~,{].;'. ",
".^/(_:~,{<[;']}.",
" ..|1%,{<[;2].. ",
"  ...;'3452...  ",
"  6...........  ",
"  66..........  ",
"  6.78.6..78..  ",
"   6..66.....   ",
"   66666.....   ",
"    666.....    ",
"     666...     "};
