/* XPM */
static char * xa_xpm[] = {
"16 16 28 1",
" 	c None",
".	c #000000",
"+	c #F6FFFF",
"@	c #CDFAFF",
"#	c #BDF2FF",
"$	c #ACE2FF",
"%	c #9CD2FF",
"&	c #8BC6FF",
"*	c #73B6F6",
"=	c #6AAEEE",
"-	c #90C7E4",
";	c #4A85C5",
">	c #3979B4",
",	c #316DAC",
"'	c #29619C",
")	c #ACE2FC",
"!	c #7FB7DA",
"~	c #98D1FC",
"{	c #6EA7D0",
"]	c #8AC2E1",
"^	c #ABE3FF",
"/	c #316CAC",
"(	c #62A5E6",
"_	c #4C87BC",
":	c #5295CD",
"<	c #88C4FC",
"[	c #3C77B2",
"}	c #185083",
"                ",
"     ......     ",
"   ..      ..   ",
" ..          .. ",
".              .",
"................",
".++@#$%%&**===*.",
".+#.#-.%;>..,,'.",
".@$.)!.%,.&&.%'.",
".@&.~{.&,.&>.%,.",
".$*]..^/,....%,.",
".%(.~_.&,.%;.$>.",
".%:.<[.&>.%:.$:.",
".&;.</.&;.%(.#:.",
".*}}}}*'',,>%::.",
" .............. "};
