/* XPM */
static const char *bird16x16[]={
"16 16 53 1",
". c None",
"Y c #394562",
"I c #3e538e",
"X c #516aab",
"E c #5c70a8",
"R c #5d657b",
"h c #5e6784",
"V c #5e6d92",
"T c #6475a6",
"x c #687bb0",
"N c #6e80b4",
"k c #7382ac",
"z c #7985a5",
"q c #7a8dc0",
"v c #7a8dc4",
"u c #8096d1",
"D c #8699cd",
"F c #879ad2",
"r c #8b9ece",
"W c #8b9ecf",
"o c #8c9fd5",
"m c #8e97b5",
"w c #95a7d8",
"H c #98a6d2",
"K c #99a9d4",
"A c #9eabd1",
"n c #a1acd3",
"t c #afbee6",
"C c #b3c2e8",
"p c #b6c3e6",
"U c #b7c1e5",
"y c #bac1e0",
"O c #bec8e8",
"i c #c3cbea",
"J c #c6ceeb",
"s c #c9d1ec",
"b c #c9d2ec",
"l c #cdd1e9",
"M c #cdd5ee",
"P c #d0d7ef",
"G c #d1d8ef",
"d c #d2d3e9",
"j c #d3d8f1",
"B c #d3daf0",
"L c #d6dbef",
"Q c #d7d8eb",
"g c #daddf4",
"f c #dddef3",
"e c #e2e3f1",
"c c #e4e3f4",
"# c #e4e5f4",
"S c #e6e5f4",
"a c #e9e5f4",
".......#........",
".......#........",
".......ab.......",
".......cd.......",
"......efgh......",
"......eijk......",
"...lm.nopq......",
"...rstuvwx..yz..",
"....ABCnDE..yFzz",
"....bbGnHInJFz..",
".....KLMnNOnz...",
".....bbeP#QR....",
".......ySJT.....",
"......zUF.......",
".....VWX........",
"......Y........."};
