/* XPM */
static const char * bird32x32_xpm[] = {
"32 32 243 2",
"  	c None",
". 	c #435385",
"+ 	c #656F94",
"@ 	c #A5B0D6",
"# 	c #6775A0",
"$ 	c #D6D6ED",
"% 	c #808DB3",
"& 	c #DFDEF1",
"* 	c #DEDAE9",
"= 	c #95A2C9",
"- 	c #E7E3F3",
"; 	c #EDE7F4",
"> 	c #A8ADCB",
", 	c #A0ACCE",
"' 	c #E5E3F3",
") 	c #ECE7F5",
"! 	c #DCDAEB",
"~ 	c #838EAF",
"{ 	c #E2E1F2",
"] 	c #EAE6F5",
"^ 	c #E9E6F6",
"/ 	c #A7ACC8",
"( 	c #68769E",
"_ 	c #DCDEF2",
": 	c #E8E6F5",
"< 	c #E2E3F5",
"[ 	c #D5D8EF",
"} 	c #7C90CA",
"| 	c #DBDDF3",
"1 	c #E7E5F5",
"2 	c #E6E6F6",
"3 	c #C9D1F0",
"4 	c #909CC7",
"5 	c #42537C",
"6 	c #879DD8",
"7 	c #D3D7F0",
"8 	c #DFE0F4",
"9 	c #E7E6F7",
"0 	c #D0D7F2",
"a 	c #9FAEDA",
"b 	c #465681",
"c 	c #7E95D6",
"d 	c #C6CDEB",
"e 	c #D8DBF1",
"f 	c #E5E5F5",
"g 	c #D8DCF3",
"h 	c #A4B5E3",
"i 	c #37446A",
"j 	c #9DA8C9",
"k 	c #758DD1",
"l 	c #A5B4E1",
"m 	c #C8D0EB",
"n 	c #D3D8F0",
"o 	c #BEC9EA",
"p 	c #9EAFDE",
"q 	c #8491BF",
"r 	c #DEDEF0",
"s 	c #C1C7E1",
"t 	c #7E89A9",
"u 	c #6A83CA",
"v 	c #8297D3",
"w 	c #B7C1E2",
"x 	c #C1CBE8",
"y 	c #B4C1E6",
"z 	c #94A8DC",
"A 	c #B1BCE0",
"B 	c #E3E2F2",
"C 	c #D1D7EF",
"D 	c #AAB8E3",
"E 	c #7A90C8",
"F 	c #475FA9",
"G 	c #6982C8",
"H 	c #8FA2D7",
"I 	c #B1BEE3",
"J 	c #B3C1E5",
"K 	c #8DA2D9",
"L 	c #667CB2",
"M 	c #B5C1E6",
"N 	c #D8DCF0",
"O 	c #CAD2ED",
"P 	c #B0BEE7",
"Q 	c #889EDA",
"R 	c #7B91D0",
"S 	c #536CB4",
"T 	c #4F65AD",
"U 	c #7084BB",
"V 	c #97A9D9",
"W 	c #AAB9E1",
"X 	c #8CA1D8",
"Y 	c #788DC2",
"Z 	c #9AAEDE",
"` 	c #B6C3E6",
" .	c #CDD4ED",
"..	c #CED6EF",
"+.	c #B7C6EA",
"@.	c #91A6DC",
"#.	c #8CA2D9",
"$.	c #9EAACF",
"%.	c #788EC9",
"&.	c #9AACDD",
"*.	c #869BD6",
"=.	c #7B91C3",
"-.	c #A9B9E2",
";.	c #C3CCEA",
">.	c #D0D7EE",
",.	c #CDD7F0",
"'.	c #ADBDE7",
").	c #A5B6E2",
"!.	c #ACBDE5",
"~.	c #C8CEE9",
"{.	c #788CC1",
"].	c #859BD5",
"^.	c #7A93D2",
"/.	c #586A99",
"(.	c #B2BDE0",
"_.	c #D7DCF0",
":.	c #D9DFF1",
"<.	c #CCD6EF",
"[.	c #AEBEE7",
"}.	c #A1B2E2",
"|.	c #BEC8EA",
"1.	c #ACB6D4",
"2.	c #6F87C9",
"3.	c #7088CC",
"4.	c #415183",
"5.	c #7084B5",
"6.	c #C2CCE9",
"7.	c #DCDFF0",
"8.	c #D8DDF1",
"9.	c #C2CEEC",
"0.	c #AEBEE8",
"a.	c #AEBDE6",
"b.	c #C7CEE7",
"c.	c #5D72B5",
"d.	c #6079C4",
"e.	c #364671",
"f.	c #6A7DA9",
"g.	c #BEC9E8",
"h.	c #CCD3EC",
"i.	c #D9DDF1",
"j.	c #D1D8F0",
"k.	c #B4C1E8",
"l.	c #9CAEE0",
"m.	c #AEBCE6",
"n.	c #8E9BC6",
"o.	c #405BB2",
"p.	c #5D6F96",
"q.	c #8A9DD3",
"r.	c #C0CAE7",
"s.	c #D7DCEE",
"t.	c #DBDFF1",
"u.	c #D2D8F0",
"v.	c #B8C5E9",
"w.	c #95A9DF",
"x.	c #B0BAE2",
"y.	c #435CA8",
"z.	c #505E8A",
"A.	c #8DA1D6",
"B.	c #C3CDED",
"C.	c #ADBADF",
"D.	c #6277B5",
"E.	c #6F84B5",
"F.	c #ABBAE1",
"G.	c #C6CEEA",
"H.	c #DFE2F3",
"I.	c #DEE1F3",
"J.	c #CDD5ED",
"K.	c #BFCAEC",
"L.	c #ADBCE6",
"M.	c #8B9CCA",
"N.	c #9BAAD5",
"O.	c #C2CDEC",
"P.	c #E6E5F1",
"Q.	c #DBDBEB",
"R.	c #9BA3CD",
"S.	c #545E7D",
"T.	c #9DAFDA",
"U.	c #C3CEEC",
"V.	c #DDE0F1",
"W.	c #E4E5F3",
"X.	c #DCDFF1",
"Y.	c #C4CFEB",
"Z.	c #BDC9EB",
"`.	c #E0E2F4",
" +	c #DDE1F3",
".+	c #DFE1F1",
"++	c #E6E5F2",
"@+	c #C3C6DB",
"#+	c #818EB1",
"$+	c #6579AE",
"%+	c #99A9CD",
"&+	c #B9C7E7",
"*+	c #CBD3EB",
"=+	c #E2E2EF",
"-+	c #E1E3F2",
";+	c #DEE0F1",
">+	c #E9E8F4",
",+	c #E8E8F4",
"'+	c #E4E4F2",
")+	c #B0B8D5",
"!+	c #7586B3",
"~+	c #B4BADA",
"{+	c #E6E4F2",
"]+	c #EAE8F4",
"^+	c #ECE9F6",
"/+	c #D4D9EF",
"(+	c #B2BEE4",
"_+	c #596CA0",
":+	c #4A5E92",
"<+	c #8295C9",
"[+	c #CCD0EA",
"}+	c #E4E4F3",
"|+	c #DFE0F2",
"1+	c #C4CDEB",
"2+	c #99ABDF",
"3+	c #657DC2",
"4+	c #8A9ED0",
"5+	c #D4D8EE",
"6+	c #CED3EC",
"7+	c #ADB9E2",
"8+	c #9DAEDE",
"9+	c #8A9DD0",
"0+	c #435687",
"a+	c #606F95",
"b+	c #C7D0E9",
"c+	c #AAB7E0",
"d+	c #91A3D9",
"e+	c #657FC8",
"f+	c #6C83C0",
"g+	c #5C699B",
"h+	c #7489BB",
"i+	c #92A5D3",
"j+	c #9AACDC",
"k+	c #8498D2",
"l+	c #637DC5",
"m+	c #4D69B5",
"n+	c #8696BA",
"o+	c #AEBBDF",
"p+	c #526BAD",
"q+	c #294285",
"r+	c #345090",
"s+	c #6D81B5",
"t+	c #3D4D70",
"                            .                                   ",
"                          + @                                   ",
"                          # $                                   ",
"                          % & *                                 ",
"                          = - ; >                               ",
"                          , ' ) !                               ",
"                          ~ { ] ^ /                             ",
"                          ( _ : < [                             ",
"                          } | 1 2 3 4                           ",
"                        5 6 7 8 9 0 a                           ",
"                        b c d e f g h                           ",
"        i j               k l m n o p                           ",
"          q r s t         u v w x y z                           ",
"            A B C D E     F G H I J K                           ",
"            L M N O P Q R S T U V W X                           ",
"            Y Z `  ...+.h @.#.$.%.&.*.                          ",
"              =.-.;.>.,.'.).!.~.{.].^.                          ",
"                /.(._.:.<.[.}.|.1.2.3.4.                        ",
"                  5.6.7.8.9.0.a.b.c.d.e.                        ",
"                  f.g.h.i.j.k.l.m.n.o.                          ",
"                  p.q.r.s.t.u.v.w.x.y.z.A.B.C.D.                ",
"                    E.F.G.H.I.J.K.L.M.N.O.P.Q.R.S.              ",
"                      T.U.V.W.X.Y.Z.`. +.+++@+#+$+              ",
"                      %+&+*+=+++-+;+>+,+'+)+                    ",
"                          !+~+{+]+^+: /+(+_+                    ",
"                          :+<+[+}+|+1+2+3+                      ",
"                          4+5+6+7+8+9+0+                        ",
"                        a+b+c+d+e+f+                            ",
"                    g+h+i+j+k+l+m+                              ",
"                      n+o+p+q+r+                                ",
"                        s+                                      ",
"                        t+                                      "};
