/* XPM */
static const char * bird16x16_offline_xpm[] = {
"16 16 69 1",
" 	c None",
".	c #FFFFFF",
"+	c #FBFBFB",
"@	c #E7E7E7",
"#	c #FDFDFD",
"$	c #FCFCFC",
"%	c #FEFEFE",
"&	c #D2D2D2",
"*	c #F8F8F8",
"=	c #FAFAFA",
"-	c #E5E5E5",
";	c #D6D6D6",
">	c #F3F3F3",
",	c #E3E3E3",
"'	c #DFDFDF",
")	c #DDDDDD",
"!	c #696969",
"~	c #F6F6F6",
"{	c #E1E1E1",
"]	c #CCCCCC",
"^	c #D7D7D7",
"/	c #838383",
"(	c #F7F7F7",
"_	c #CFCFCF",
":	c #9B9B9B",
"<	c #AEAEAE",
"[	c #A2A2A2",
"}	c #C1C1C1",
"|	c #8D8D8D",
"1	c #F5F5F5",
"2	c #A1A1A1",
"3	c #BFBFBF",
"4	c #9A9A9A",
"5	c #919191",
"6	c #A7A7A7",
"7	c #7C7C7C",
"8	c #C0C0C0",
"9	c #878787",
"0	c #F2F2F2",
"a	c #F4F4F4",
"b	c #AFAFAF",
"c	c #ACACAC",
"d	c #707070",
"e	c #EFEFEF",
"f	c #858585",
"g	c #D0D0D0",
"h	c #D1D1D1",
"i	c #5B5B5B",
"j	c #CBCBCB",
"k	c #9D9D9D",
"l	c #868686",
"m	c #D9D9D9",
"n	c #D3D3D3",
"o	c #B0B0B0",
"p	c #C5C5C5",
"q	c #EBEBEB",
"r	c #F9F9F9",
"s	c #D4D4D4",
"t	c #6A6A6A",
"u	c #E6E6E6",
"v	c #E8E8E8",
"w	c #E4E4E4",
"x	c #9F9F9F",
"y	c #F0F0F0",
"z	c #EDEDED",
"A	c #6E6E6E",
"B	c #6C6C6C",
"C	c #F1F1F1",
"D	c #454545",
"......+@#.......",
"......+@$%......",
"......+@&*......",
".....%=-;>%.....",
".....#,')!~.....",
"..%$*#{]^/(.....",
"..=_:><[}|*%=~%.",
"..12]34567(*890a",
"..%ab^}c:dea84ff",
"...#gh^b6icjkla~",
"...%0<mnofpclq%.",
"....rg&{^{st>%..",
"....%$up,]7v%...",
"....$wl3xy=%....",
"....zA:BC%......",
"....%0D+%......."};
