/* XPM */
static const char *button[]={
"50 22 205 2",
"Qt c None",
".I c #000000",
".X c #1d1d1d",
"#K c #364671",
"aN c #393939",
"#V c #405bb2",
"#z c #415183",
".k c #42537c",
"#5 c #435ca8",
".r c #465681",
".R c #475fa9",
"aW c #4a5e92",
"bk c #4d69b5",
".3 c #4f65ad",
"#6 c #505e8a",
".2 c #536cb4",
"an c #545e7d",
".H c #555555",
"aV c #596ca0",
"be c #5c699b",
"#W c #5d6f96",
"#I c #5d72b5",
"b. c #606f95",
"#J c #6079c4",
"a. c #6277b5",
"bj c #637dc5",
"aC c #6579ae",
"a3 c #657dc2",
"bc c #657fc8",
".# c #68769e",
".S c #6982c8",
"#M c #6a7da9",
".J c #6a83ca",
"bd c #6c83c0",
"a# c #6f84b5",
"#x c #6f87c9",
"#A c #7084b5",
".4 c #7084bb",
"#y c #7088cc",
"#L c #727272",
"bf c #7489bb",
"aO c #7586b3",
".B c #758dd1",
"#m c #788cc1",
"#c c #788ec9",
".Q c #7a90c8",
"#o c #7a93d2",
".1 c #7b91d0",
".e c #7c90ca",
".s c #7e95d6",
"aB c #818eb1",
"aX c #8295c9",
".K c #8297d3",
"bi c #8498d2",
"#n c #859bd5",
"#e c #869bd6",
".l c #879dd8",
".0 c #889eda",
"a9 c #8a9dd0",
"#X c #8a9dd3",
"a4 c #8a9ed0",
"ah c #8b9cca",
".7 c #8ca1d8",
"#a c #8ca2d9",
"#7 c #8da1d6",
".W c #8da2d9",
"ao c #8e8e8e",
"#U c #8e9bc6",
".T c #8fa2d7",
".j c #909cc7",
"bb c #91a3d9",
"## c #91a6dc",
"bg c #92a5d3",
".O c #94a8dc",
"#3 c #95a9df",
".5 c #97a9d9",
"aD c #99a9cd",
"a2 c #99abdf",
"bh c #9aacdc",
"#d c #9aacdd",
"am c #9ba3cd",
"ai c #9baad5",
"#S c #9caee0",
"a8 c #9daede",
"ap c #9dafda",
"#b c #9eaacf",
".G c #9eafde",
".q c #9faeda",
"#u c #a1b2e2",
".x c #a4b5e3",
".C c #a5b4e1",
"#j c #a5b6e2",
".z c #aaaaaa",
"ba c #aab7e0",
".P c #aab8e3",
".6 c #aab9e1",
"aa c #abbae1",
"#w c #acb6d4",
"#k c #acbde5",
"a7 c #adb9e2",
"#9 c #adbadf",
"ag c #adbce6",
"#i c #adbde7",
"#T c #aebce6",
"#G c #aebde6",
"#t c #aebee7",
"#F c #aebee8",
"aM c #b0b8d5",
"#4 c #b0bae2",
".Z c #b0bee7",
".U c #b1bee3",
"#p c #b2bde0",
"aU c #b2bee4",
".V c #b3c1e5",
"aP c #b4bada",
".N c #b4c1e6",
"#R c #b4c1e8",
".L c #b7c1e2",
"#. c #b7c6ea",
"#2 c #b8c5e9",
"aE c #b9c7e7",
"av c #bdc9eb",
"#v c #bec8ea",
"#N c #bec9e8",
".F c #bec9ea",
"af c #bfcaec",
"#Y c #c0cae7",
".M c #c1cbe8",
"#B c #c2cce9",
"aj c #c2cdec",
"#E c #c2ceec",
"aA c #c3c6db",
"#f c #c3ccea",
"#8 c #c3cded",
"aq c #c3ceec",
"a1 c #c4cdeb",
"au c #c4cfeb",
".t c #c6cdeb",
"ab c #c6ceea",
".y c #c7c7c7",
"#H c #c7cee7",
"b# c #c7d0e9",
"#l c #c8cee9",
".D c #c8d0eb",
".i c #c9d1f0",
".Y c #cad2ed",
"aF c #cbd3eb",
"aY c #ccd0ea",
"#O c #ccd3ec",
"#s c #ccd6ef",
".8 c #cdd4ed",
"ae c #cdd5ed",
"#h c #cdd7f0",
"a6 c #ced3ec",
".9 c #ced6ef",
"#g c #d0d7ee",
".p c #d0d7f2",
"#Q c #d1d8f0",
"#1 c #d2d8f0",
".m c #d3d7f0",
".E c #d3d8f0",
"a5 c #d4d8ee",
"aT c #d4d9ef",
".d c #d5d8ef",
"#Z c #d7dcee",
"#q c #d7dcf0",
".u c #d8dbf1",
".w c #d8dcf3",
"#D c #d8ddf1",
"#P c #d9ddf1",
"#r c #d9dff1",
"al c #dbdbeb",
".f c #dbddf3",
"#0 c #dbdff1",
".a c #dcdef2",
"#C c #dcdff0",
"at c #dcdff1",
"ar c #dde0f1",
"ax c #dde1f3",
"aI c #dee0f1",
"ad c #dee1f3",
"a0 c #dfe0f2",
".n c #dfe0f4",
"ay c #dfe1f1",
"ac c #dfe2f3",
"aw c #e0e2f4",
"aH c #e1e3f2",
"aG c #e2e2ef",
".c c #e2e3f5",
".A c #e3e3e3",
"aL c #e4e4f2",
"aZ c #e4e4f3",
"as c #e4e5f3",
".v c #e5e5f5",
"aQ c #e6e4f2",
"ak c #e6e5f1",
"az c #e6e5f2",
".h c #e6e6f6",
".g c #e7e5f5",
".o c #e7e6f7",
".b c #e8e6f5",
"aK c #e8e8f4",
"aJ c #e9e8f4",
"aR c #eae8f4",
"aS c #ece9f6",
"QtQtQtQt.#.a.b.c.dQtQtQtQtQtQtQtQtQtQtQtQtQtQtQtQtQtQtQtQtQtQtQtQtQtQtQtQtQtQtQtQtQtQtQtQtQtQtQtQtQt",
"QtQtQtQt.e.f.g.h.i.jQtQtQtQtQtQtQtQtQtQtQtQtQtQtQtQtQtQtQtQtQtQtQtQtQtQtQtQtQtQtQtQtQtQtQtQtQtQtQtQt",
"QtQtQt.k.l.m.n.o.p.qQtQtQtQtQtQtQtQtQtQtQtQtQtQtQtQtQtQtQtQtQtQtQtQtQtQtQtQtQtQtQtQtQtQtQtQtQtQtQtQt",
"QtQtQt.r.s.t.u.v.w.x.y.z.z.z.yQtQtQtQt.y.z.z.z.z.z.AQt.z.z.z.zQt.A.z.z.z.z.z.z.z.z.z.z.z.z.z.AQtQtQt",
"QtQtQtQt.B.C.D.E.F.G.H.I.I.I.HQtQtQt.z.I.I.I.I.I.HQtQt.I.I.I.IQt.z.I.I.I.I.I.I.I.I.I.I.I.I.I.zQtQtQt",
"QtQtQtQt.J.K.L.M.N.O.H.I.I.I.HQtQt.z.I.I.I.I.I.HQtQtQt.I.I.I.IQt.z.I.I.I.I.I.I.I.I.I.I.I.I.I.zQtQtQt",
".P.QQtQt.R.S.T.U.V.W.H.I.I.I.HQt.A.X.I.I.I.I.HQtQtQtQt.z.z.z.zQt.z.I.I.I.I.I.I.I.I.I.I.I.I.I.zQtQtQt",
".Y.Z.0.1.2.3.4.5.6.7.H.I.I.I.H.A.X.I.I.I.I.HQtQtQtQtQt.z.z.z.zQtQtQtQtQtQt.H.I.I.I.HQtQtQtQtQtQtQtQt",
".8.9#..x###a#b#c#d#e.H.I.I.I.H.X.I.I.I.I.HQtQtQtQtQtQt.I.I.I.IQtQtQtQtQtQt.H.I.I.I.HQtQtQtQtQtQtQtQt",
"#f#g#h#i#j#k#l#m#n#o.H.I.I.I.I.I.I.I.I.I.zQtQtQtQtQtQt.I.I.I.IQtQtQtQtQtQt.H.I.I.I.HQtQtQtQtQtQtQtQt",
"#p#q#r#s#t#u#v#w#x#y#z.I.I.I.I.I.I.I.I.I.X.AQtQtQtQtQt.I.I.I.IQtQtQtQtQtQt.H.I.I.I.HQtQtQtQtQtQtQtQt",
"#A#B#C#D#E#F#G#H#I#J#K.I.I.I.I.I.I.I.I.I.I#LQtQtQtQtQt.I.I.I.IQtQtQtQtQtQt.H.I.I.I.HQtQtQtQtQtQtQtQt",
"#M#N#O#P#Q#R#S#T#U#V.H.I.I.I.I.I.X.H.I.I.I.I.yQtQtQtQt.I.I.I.IQtQtQtQtQtQt.H.I.I.I.HQtQtQtQtQtQtQtQt",
"#W#X#Y#Z#0#1#2#3#4#5#6#7#8#9a..X.A.A.I.I.I.I.XQtQtQtQt.I.I.I.IQtQtQtQtQtQt.H.I.I.I.HQtQtQtQtQtQtQtQt",
"Qta#aaabacadaeafagahaiajakalamanQtQt#L.I.I.I.IaoQtQtQt.I.I.I.IQtQtQtQtQtQt.H.I.I.I.HQtQtQtQtQtQtQtQt",
"QtQtapaqarasatauavawaxayazaAaBaCQtQt.A.I.I.I.I.I.AQtQt.I.I.I.IQtQtQtQtQtQt.H.I.I.I.HQtQtQtQtQtQtQtQt",
"QtQtaDaEaFaGazaHaIaJaKaLaM.I.HQtQtQtQt#L.I.I.I.IaNQtQt.I.I.I.IQtQtQtQtQtQt.H.I.I.I.HQtQtQtQtQtQtQtQt",
"QtQtQtQtaOaPaQaRaS.baTaUaV.I.HQtQtQtQtQt.X.I.I.I.I.zQt.I.I.I.IQtQtQtQtQtQt.H.I.I.I.HQtQtQtQtQtQtQtQt",
"QtQtQtQtaWaXaYaZa0a1a2a3QtQtQtQtQtQtQtQtQtQtQtQtQtQtQtQtQtQtQtQtQtQtQtQtQtQtQtQtQtQtQtQtQtQtQtQtQtQt",
"QtQtQtQta4a5a6a7a8a9QtQtQtQtQtQtQtQtQtQtQtQtQtQtQtQtQtQtQtQtQtQtQtQtQtQtQtQtQtQtQtQtQtQtQtQtQtQtQtQt",
"QtQtQtb.b#babbbcbdQtQtQtQtQtQtQtQtQtQtQtQtQtQtQtQtQtQtQtQtQtQtQtQtQtQtQtQtQtQtQtQtQtQtQtQtQtQtQtQtQt",
"QtbebfbgbhbibjbkQtQtQtQtQtQtQtQtQtQtQtQtQtQtQtQtQtQtQtQtQtQtQtQtQtQtQtQtQtQtQtQtQtQtQtQtQtQtQtQtQtQt"};
