/* XPM */
static char *close[]={
"16 16 111 2",
"Qt c None",
"#L c #141414",
".0 c #181818",
"#N c #1b1b1b",
"#C c #1c1c1c",
"#F c #202020",
".P c #232323",
".Z c #262626",
"#m c #282828",
".5 c #2b2b2b",
"#v c #2c2c2c",
"#E c #2d2d2d",
".Q c #2e2e2e",
"#w c #303030",
"#K c #333333",
"#z c #343434",
"#h c #373737",
".O c #383838",
"#J c #3a3a3a",
"#b c #3b3b3b",
"#p c #3e3e3e",
".H c #3f3f3f",
".Y c #404040",
"#e c #414141",
".6 c #424242",
"#a c #434343",
".C c #444444",
".v c #464646",
".I c #474747",
".T c #484848",
".3 c #494949",
"#o c #4c4c4c",
".D c #4d4d4d",
"#i c #4e4e4e",
".G c #505050",
".4 c #525252",
"#l c #535353",
".U c #555555",
"## c #575757",
".J c #5a5a5a",
"#n c #5b5b5b",
".N c #5e5e5e",
".u c #606060",
"#G c #636363",
"#q c #646464",
"#d c #676767",
".t c #696969",
"#u c #6b6b6b",
".k c #6d6d6d",
"#M c #6e6e6e",
".V c #767676",
".X c #787878",
".p c #808080",
".B c #828282",
".j c #868686",
"#O c #888888",
".q c #898989",
".W c #8b8b8b",
".M c #919191",
"#. c #939393",
".w c #949494",
"#y c #969696",
".7 c #979797",
"#k c #999999",
"#t c #9c9c9c",
"#A c #a0a0a0",
".i c #a3a3a3",
".A c #a4a4a4",
"#f c #a9a9a9",
"#Q c #aaaaaa",
".2 c #acacac",
".d c #adadad",
".s c #afafaf",
".L c #b2b2b2",
".S c #b3b3b3",
".o c #b4b4b4",
"#g c #bebebe",
".K c #c0c0c0",
".z c #c2c2c2",
"#j c #cacaca",
"#c c #cbcbcb",
".R c #cecece",
".F c #cfcfcf",
".e c #d0d0d0",
"#x c #d1d1d1",
".c c #d3d3d3",
".h c #d6d6d6",
".n c #d8d8d8",
"#s c #d9d9d9",
".8 c #dadada",
".E c #dbdbdb",
"#D c #dedede",
"#R c #e0e0e0",
"#S c #e3e3e3",
".l c #e4e4e4",
".y c #e6e6e6",
".f c #e9e9e9",
".g c #eaeaea",
"#r c #ebebeb",
"#I c #ededed",
"#B c #eeeeee",
".1 c #efefef",
".a c #f2f2f2",
".r c #f3f3f3",
".m c #f4f4f4",
".9 c #f6f6f6",
"#H c #f8f8f8",
".# c #fafafa",
"#P c #fbfbfb",
".b c #fdfdfd",
".x c #fefefe",
"QtQt.#.a.bQtQtQtQtQtQtQtQtQtQtQt",
"Qt.#.c.d.eQtQtQtQtQt.b.f.c.gQtQt",
"Qt.h.i.j.k.lQtQtQt.m.n.o.p.q.rQt",
"Qt.s.t.u.v.w.#.x.y.z.A.B.C.D.EQt",
"Qt.F.G.H.I.J.K.h.L.M.N.O.P.Q.RQt",
"Qt.b.S.T.H.U.V.W.X.Y.Z.0.O.q.1Qt",
"QtQtQt.2.I.3.4.U.H.5.6.7.8.#QtQt",
"QtQtQt.9#.##.T#a#b.3#cQtQtQtQtQt",
"QtQtQt.f.i#d.C.6#e.H#fQtQtQtQtQt",
"QtQt.r#g.W.v#h#b.6#a#i.zQtQtQtQt",
"Qt.##j#k#l#m#n#o#p.T.6#q#rQtQtQt",
".x#s#t#u#v#w#x#y#b.6.H#z#AQtQtQt",
"#B.7.k#b#C.MQt#D#l#z#E#F#G#HQtQt",
"#I.q#J.P.C.fQtQt.o#K#L#p.sQtQtQt",
"Qt#r#M#N#OQtQtQt#P.K#Q#RQtQtQtQt",
"QtQt#R.s#SQtQtQtQtQtQtQtQtQtQtQt"};
