/* XPM */
static char *config[]={
"16 16 159 2",
"Qt c None",
"#4 c #010101",
"ad c #010102",
"an c #020304",
"#G c #030303",
"#8 c #06070a",
"#R c #07080b",
"av c #090a0e",
"#C c #090b0f",
"#m c #090b10",
"aw c #0a0a0a",
"ae c #0c0d11",
"au c #0c0e14",
".9 c #0e1117",
"#0 c #0f1219",
"#U c #13161f",
".V c #161616",
"ao c #181919",
"#h c #191a1d",
"#w c #1b202c",
"#. c #1f232a",
"#3 c #202635",
"#b c #252525",
"#D c #25262e",
"ac c #252c3c",
"#n c #272a33",
"am c #272e3f",
".H c #282828",
"#x c #293143",
".5 c #2a2b2d",
"#r c #2d313c",
"aj c #333c52",
".S c #343434",
".2 c #363636",
"#7 c #36383c",
".W c #363945",
"#S c #3a3c43",
".u c #3c3c3d",
"#5 c #3e3f46",
"#1 c #404b67",
".k c #414143",
"#T c #414448",
".M c #424243",
"ab c #44506d",
".Z c #45484f",
"#i c #47526f",
".Q c #48494c",
"#2 c #485473",
"#9 c #485574",
".R c #494b51",
".j c #4a4b4c",
"aa c #4b5879",
"al c #4c587a",
".A c #4e4e4e",
"ak c #515e82",
"a# c #536186",
"#N c #546288",
"#Q c #546388",
".P c #55575f",
".I c #555e77",
"#e c #555f75",
"ai c #565961",
"#B c #56648a",
".q c #575757",
"#M c #57668c",
"#q c #585a5f",
"a. c #58668d",
".i c #59595a",
"#O c #5a6990",
"#Z c #5a6991",
"#L c #5b6a93",
"#H c #5c6b94",
"#V c #5d6d97",
".U c #5e6985",
".6 c #5f6987",
"#Y c #61729d",
"#l c #62729d",
"#X c #62739d",
"#P c #62739e",
".r c #63666d",
".v c #636a7b",
".8 c #63739b",
"af c #666c7c",
"#z c #6879a6",
"#A c #6a7cab",
"#W c #6b7dad",
"aA c #6c6f76",
".G c #6c758d",
"#K c #6d7faf",
"#J c #6f81b2",
".B c #727888",
".1 c #727c96",
"#y c #7387bb",
".p c #74757a",
"aB c #757880",
"at c #757982",
".E c #757c90",
".T c #7783a6",
"#k c #788cc1",
"#c c #7986ac",
".Y c #7a7d83",
"#I c #7a8ec4",
"#u c #7b8ec2",
".D c #7c8498",
"#v c #7c90c6",
"#j c #7c90c8",
".N c #7d869f",
".F c #7d87a2",
".s c #7f889e",
"#d c #7f8eb7",
".C c #81889e",
"#g c #8193c1",
"#s c #8397cb",
"#t c #8498cd",
".3 c #8594b8",
"ax c #878a92",
"ap c #888b93",
"#f c #8899c7",
".7 c #8b9fd5",
".4 c #8c9cc6",
".t c #929fc1",
".h c #9da0a9",
".z c #9da1ab",
".O c #9dacd2",
".0 c #9eafdd",
".L c #adb1ba",
".o c #b8bbc6",
".w c #bdc8e5",
".X c #c0c8dc",
".l c #c0c8dd",
"## c #c1c9dd",
"#o c #c2c8da",
".J c #c2cce4",
"aq c #c7cbd5",
"#a c #cacdd6",
"az c #caced6",
"#E c #cacfdd",
".g c #d2d6e0",
"#F c #d4d7e0",
".c c #d4d8e2",
"ag c #d7dae2",
".b c #d7dae4",
"aC c #d9dbe0",
"#6 c #dfe2e7",
".a c #e8ebf2",
"ar c #eaebf0",
"ay c #ebedef",
".m c #eff2f8",
".x c #f1f3f8",
"ah c #f2f3f7",
".d c #f4f6fa",
"as c #f5f6f8",
".n c #f7f8fb",
".y c #f7f9fb",
".K c #f9fafc",
".# c #fafbfd",
"#p c #fbfcfd",
".e c #fdfdfe",
".f c #fefeff",
"QtQtQtQtQtQtQtQtQtQtQtQtQtQtQtQt",
"QtQtQtQtQt.#.a.b.c.d.eQtQtQtQtQt",
"QtQt.f.d.g.h.i.j.k.l.mQtQtQtQtQt",
"Qt.n.o.p.q.r.s.t.u.v.w.xQtQtQtQt",
".y.z.A.B.C.D.E.F.G.H.I.J.KQtQtQt",
".L.M.N.O.P.Q.R.S.T.U.V.W.X.nQtQt",
".Y.Z.0.1.2.3.4.5.6.7.8.9#.##.nQt",
"#a#b#c#d#e#f#g#h#i#j#k#l#m#n#o.n",
"#p#q#r#s#t#u#v#w#x#y#z#A#B#C#D#E",
"Qt#F#G#H#I#J#K#L#M#N#O#H#P#Q#R#S",
"QtQt#T#U#V#W#X#Y#Z#0#1#H#2#3#4#5",
"QtQt#6#7#8#9#Pa.a#aaabacadaeafag",
"QtQtQtahaiadajakalamanaoapaqarQt",
"QtQtQtQtasat#GauavawaxayQtQtQtQt",
"QtQtQtQtQtQtazaAaBaCQtQtQtQtQtQt",
"QtQtQtQtQtQtQtQtQtQtQtQtQtQtQtQt"};
