/* XPM */
static const char *connecting16x16_xpm[]={
"16 16 145 2",
"Qt c None",
"a# c #3d2d05",
"#1 c #3e2e05",
"ag c #403009",
"al c #45350f",
"#Q c #483708",
"a. c #4d3906",
"af c #503b07",
"ak c #503f13",
"am c #564825",
"#0 c #584107",
"#P c #5c4408",
"#G c #5e4608",
"ae c #5f4608",
"#9 c #6a4e09",
"aa c #6f6346",
"ad c #705309",
"aj c #736032",
"#y c #78590a",
"#z c #786128",
"#s c #7b5d13",
"#F c #815f0b",
"#8 c #82600b",
"an c #857a61",
"#O c #87640b",
"ac c #8b6b1c",
"ah c #8b826a",
"#l c #8d6b14",
"#2 c #8d836c",
"#r c #8f6a0c",
"#7 c #936d0c",
"#H c #968764",
"#6 c #9b720d",
"#5 c #9c730d",
"#x c #9f750d",
"#4 c #a1770d",
"#k c #a3790d",
"#Z c #a4790d",
"#d c #ab872e",
"ai c #ac9d78",
"#E c #b0820e",
"#c c #b3840f",
"#q c #b5850f",
"#U c #bd8c0f",
"#Y c #be8d10",
"#T c #c08e10",
".6 c #c39010",
"#V c #c69210",
"#w c #ca9510",
"#X c #cc9611",
"#b c #cd9711",
"#W c #d09911",
"ab c #d0bf94",
"ao c #d0ccc2",
".7 c #d2b56e",
"#3 c #d3ba7c",
"#N c #d59e11",
".Y c #d59f15",
"#D c #d79f12",
".5 c #d8a012",
"#R c #d9d4c9",
"#p c #daa112",
"#J c #dba212",
"#K c #e0a512",
"#j c #e1a612",
"#I c #e2b031",
"#L c #e6aa13",
".X c #e7aa13",
"#v c #e9ac13",
"#C c #ebae13",
".4 c #ecaf13",
"#S c #eddaab",
"#M c #eeb013",
"#o c #efb114",
"#B c #f1b214",
"#i c #f2b314",
".M c #f2d07d",
"#a c #f4b414",
"## c #f5b514",
".L c #f5b515",
".3 c #f5b617",
".W c #f5b618",
".S c #f5b71a",
".T c #f5b81c",
".R c #f5b81d",
"#u c #f5b81f",
".Z c #f5ead0",
".U c #f6b920",
".V c #f6b922",
".K c #f6bb26",
"#n c #f6bb27",
"#t c #f6bc2a",
"#h c #f6be31",
".z c #f6bf32",
".J c #f6bf35",
".I c #f6c036",
".Q c #f7c038",
".H c #f7c13c",
"#. c #f7c23e",
".y c #f7c341",
"#g c #f7c546",
".G c #f7c649",
".x c #f7c74e",
".n c #f7c955",
"#f c #f8c852",
".P c #f8c954",
".w c #f8c955",
".9 c #f8ca57",
".v c #f8cb5a",
".m c #f8cc5d",
".F c #f8cd5f",
".u c #f8ce64",
".A c #f9ce64",
".l c #f9d06a",
"#m c #f9d06b",
".2 c #f9d16c",
".O c #f9d270",
".t c #f9d372",
".k c #f9d375",
".1 c #f9d476",
".E c #f9d478",
"#e c #fad57b",
".j c #fad781",
".s c #fad883",
".D c #fada89",
".c c #fada8a",
".i c #fadb8c",
".C c #fadc90",
".r c #fadc91",
".b c #fade96",
".o c #fbde94",
".N c #fbde96",
".h c #fbde97",
".q c #fbdf99",
".8 c #fbe09d",
".d c #fbe2a4",
".g c #fbe3a6",
"#A c #fbe4ab",
".a c #fce4ab",
".p c #fdeeca",
".# c #fdefcc",
".0 c #fdefce",
".f c #fdf3d8",
".B c #fdf3da",
".e c #fef4dc",
"QtQtQtQtQt.#.a.b.c.c.d.eQtQtQtQt",
"QtQtQt.f.g.h.i.j.k.l.m.n.oQtQtQt",
"QtQt.p.q.r.s.t.u.v.w.x.y.z.AQtQt",
"Qt.B.C.D.E.F.G.H.I.J.I.z.K.L.MQt",
"Qt.N.j.O.P.Q.K.R.S.T.U.V.W.X.Y.Z",
".0.1.2.w.I.U.W.L.L.L.3.W.4.5.6.7",
".8.u.9#..K.W.L#####a.L#a.X#b#c#d",
"#e#f#g#h.R.L########.L#i#j.6#k#l",
"#m#..I#n.S#a#########a#o#p#q#r#s",
".1#t.K#u.3#a#a#####a#i#v#w#x#y#z",
"#A#a#i#i#B#B#a#a#a#i#C#D#E#F#G#H",
"Qt#I#p#J#K#L.4#M#M.X#N#q#O#P#Q#R",
"Qt#S#T#U#T#V#b#W#X#Y#Z#F#0#1#2Qt",
"QtQt#3#4#5#6#5#6#7#8#9a.a#aaQtQt",
"QtQtQtabac#yad#9aeafa#agahQtQtQt",
"QtQtQtQtQtaiajakalamanaoQtQtQtQt"};
