/* XPM */
static const char *dnd[]={
"16 16 68 2",
"Qt c None",
".z c #000000",
".Y c #1e2330",
".6 c #222633",
".X c #262c3d",
"## c #272c38",
".5 c #272e3f",
"#. c #2e3442",
".4 c #2f364b",
".W c #343c53",
".3 c #374059",
"#a c #3b3f4b",
".2 c #3b455f",
".V c #404a66",
".J c #414b63",
".U c #485474",
".H c #4a5571",
".L c #4c5366",
".T c #4c587a",
".S c #4c597b",
".1 c #4d5771",
".9 c #4f5563",
".R c #4f5c7f",
".Z c #585c66",
".A c #58a8ff",
".F c #65718e",
"#b c #71747c",
".7 c #797c84",
".N c #7a7f8a",
".x c #899bc9",
".8 c #8f94a0",
".w c #92a2cd",
".v c #99a8d0",
".D c #9aa3bb",
".m c #9dabd2",
".u c #9dacd2",
".t c #a0aed3",
".l c #a2b0d4",
".Q c #a3abbf",
".y c #a5b3d6",
".s c #a6b3d6",
".k c #a9b6d8",
".I c #aab6d8",
".r c #aebada",
".0 c #afb4c2",
".j c #b0bbdb",
".K c #b0bcdb",
".G c #b3bfdc",
".i c #b6c1de",
".q c #b8c2de",
".c c #bbc6e0",
".h c #bdc7e1",
".p c #c0c9e2",
".b c #c2cbe3",
".g c #c3cce4",
".o c #c4cde4",
".E c #c7cfe5",
".C c #c8cacd",
".d c #cbd3e7",
".f c #ccd4e8",
".M c #ced6e9",
".a c #cfd6e9",
".P c #d0d1d5",
".n c #e1e5f1",
".# c #e2e6f2",
".B c #e3e7f2",
".e c #e9ecf5",
".O c #f7f8fb",
"QtQtQtQtQt.#.a.b.c.c.dQtQtQtQtQt",
"QtQtQt.e.f.g.h.i.j.k.l.m.bQtQtQt",
"QtQt.n.o.p.q.r.s.t.u.v.w.x.yQtQt",
"Qt.z.z.z.z.z.z.z.z.z.z.z.z.z.zQt",
"Qt.z.A.A.A.A.A.A.A.A.A.A.A.A.zQt",
".B.z.A.A.z.z.C.A.A.A.z.z.C.A.z.D",
".E.z.A.A.A.A.z.C.A.z.C.A.A.A.z.F",
".G.z.A.A.A.A.A.z.z.C.A.A.A.A.z.H",
".I.z.A.A.A.A.A.z.z.C.A.A.A.A.z.J",
".K.z.A.A.A.A.z.C.A.z.C.A.A.A.z.L",
".M.z.A.A.z.z.C.A.A.A.z.z.C.A.z.N",
".O.z.A.A.A.A.A.A.A.A.A.A.A.A.z.P",
"Qt.z.z.z.z.z.z.z.z.z.z.z.z.z.zQt",
"QtQt.Q.R.S.T.S.T.U.V.W.X.Y.ZQtQt",
"QtQtQt.0.1.2.3.W.4.5.Y.6.7QtQtQt",
"QtQtQtQtQt.8.9#.###a#b.CQtQtQtQt"};
