/* XPM */
static const char *down16x16_grey[]={
"16 16 74 2",
"Qt c None",
"#c c #444444",
"#d c #454545",
".7 c #474747",
".3 c #494949",
"#b c #4d4d4d",
".R c #4e4e4e",
"## c #4f4f4f",
".V c #555555",
".J c #575757",
".C c #585858",
".2 c #595959",
".I c #5e5e5e",
"#. c #5f5f5f",
".W c #636363",
".Q c #6c6c6c",
".v c #6d6d6d",
".6 c #6f6f6f",
".U c #737373",
".1 c #747474",
".H c #7c7c7c",
".T c #7d7d7d",
"#a c #7e7e7e",
".Z c #7f7f7f",
".S c #818181",
".5 c #828282",
".9 c #848484",
".u c #858585",
".P c #868686",
".B c #878787",
".0 c #888888",
".L c #898989",
".M c #8a8a8a",
"#e c #8d8d8d",
".G c #8f8f8f",
".O c #919191",
".N c #939393",
".A c #949494",
".F c #959595",
".z c #969696",
".y c #979797",
".Y c #999999",
".E c #9a9a9a",
".t c #9b9b9b",
".x c #9d9d9d",
".o c #9e9e9e",
".D c #a0a0a0",
".s c #a3a3a3",
".r c #a4a4a4",
"#f c #a5a5a5",
".w c #a6a6a6",
".K c #a9a9a9",
".q c #acacac",
".n c #aeaeae",
"#g c #b0b0b0",
".p c #b5b5b5",
".m c #b6b6b6",
".l c #b8b8b8",
".k c #b9b9b9",
".f c #bcbcbc",
".g c #bdbdbd",
".j c #bfbfbf",
".e c #c3c3c3",
".i c #c5c5c5",
".d c #c6c6c6",
".c c #c7c7c7",
".b c #cbcbcb",
".a c #cecece",
".4 c #e2e2e2",
".8 c #e3e3e3",
".h c #e5e5e5",
".X c #e9e9e9",
"#h c #ececec",
".# c #f5f5f5",
"QtQtQtQtQtQtQtQtQtQtQtQtQtQtQtQt",
"QtQtQtQtQtQtQtQtQtQtQtQtQtQtQtQt",
"Qt.#.a.b.c.d.d.d.d.d.d.e.f.g.hQt",
"Qt.i.d.j.k.l.l.l.l.l.l.m.n.o.oQt",
"Qt.k.p.q.r.s.s.s.s.s.s.s.t.u.vQt",
"Qt.n.w.x.y.z.y.y.y.y.z.A.B.v.CQt",
"Qt.D.E.z.A.z.z.y.z.z.F.G.H.I.JQt",
"Qt.K.L.M.G.N.z.z.z.z.O.P.Q.R.SQt",
"QtQt.E.T.P.G.A.z.F.N.L.U.V.W.mQt",
"QtQt.X.Y.Z.M.N.A.O.0.1.2.3.LQtQt",
"QtQtQt.4.o.5.L.L.S.6.C.7.v.8QtQt",
"QtQtQtQtQt.9.1.v#..R###aQtQtQtQt",
"QtQtQtQtQtQt.Q#b#c#d#eQtQtQtQtQt",
"QtQtQtQtQtQt.s#f.F#g#hQtQtQtQtQt",
"QtQtQtQtQtQtQtQtQtQtQtQtQtQtQtQt",
"QtQtQtQtQtQtQtQtQtQtQtQtQtQtQtQt"};
