/* XPM */
static const char *down16x16[]={
"16 16 95 2",
"Qt c None",
"#v c #374055",
"#w c #3b4252",
"#k c #3b4357",
"#c c #3d4659",
"#u c #3e4863",
".Y c #3e4864",
"#q c #3f4963",
".4 c #444f6d",
"#r c #454b5d",
".I c #465271",
"#j c #47526f",
"#b c #475372",
".P c #48526b",
".O c #4b5778",
"#p c #4c587a",
".X c #56648a",
".z c #57668c",
"#i c #58678e",
".5 c #596071",
"#t c #5a6684",
".3 c #5c6b94",
"#a c #5d6c95",
".N c #63739f",
".1 c #6474a0",
".9 c #6576a3",
"#l c #666b77",
"#h c #6778a5",
"#g c #6879a7",
".y c #6a7caa",
".W c #6b7dac",
".H c #6b7dad",
"## c #6c7eae",
".R c #6d7faf",
"#o c #6e7ca3",
".S c #6e80b1",
".T c #7285b7",
".M c #7285b8",
"#. c #7387b9",
".V c #7487ba",
".2 c #7588bc",
".U c #7589bc",
".G c #768abe",
".L c #778abf",
".Z c #787e8e",
".E c #788bc0",
".F c #788cc1",
"#s c #797c87",
".D c #798cc1",
".K c #7d90c3",
".x c #7e91c4",
".C c #8093c5",
"#d c #828792",
".p c #8294c5",
".J c #8597c6",
".8 c #8793b2",
".0 c #8793b4",
"#x c #888b94",
".q c #8896bd",
".w c #889ac8",
".v c #889ac9",
".u c #8a9bc9",
"#f c #8b98b7",
".B c #8c9dca",
"#A c #90949d",
".Q c #93a1c7",
".t c #94a3ce",
".A c #96a6cf",
".o c #97a6cf",
"#y c #9aa0b0",
"#z c #9fa3ae",
".s c #a0aed3",
".n c #a1afd4",
".m c #a3b1d5",
".r c #a4b2d5",
".l c #a5b2d6",
".f c #a8b5d7",
".g c #aab7d8",
"#B c #acafb6",
".k c #adb9d9",
".6 c #b1b4bd",
".e c #b2bddc",
".i c #b4bfdd",
".d c #b5c0dd",
".j c #b6c1dd",
".c c #b6c1de",
".b c #bcc6e0",
".a c #bfc9e2",
"#n c #d5dae5",
"#e c #dde1ea",
".h c #dde2f0",
"#m c #e1e3e5",
".7 c #e5e8ee",
"#C c #ebecee",
".# c #f2f4f9",
"QtQtQtQtQtQtQtQtQtQtQtQtQtQtQtQt",
"QtQtQtQtQtQtQtQtQtQtQtQtQtQtQtQt",
"Qt.#.a.b.c.d.d.d.d.d.d.e.f.g.hQt",
"Qt.i.j.k.l.m.m.m.m.m.m.n.o.p.qQt",
"Qt.r.s.t.u.v.v.v.v.v.v.w.x.y.zQt",
"Qt.A.B.C.D.E.F.F.F.F.E.G.H.z.IQt",
"Qt.J.K.E.G.E.E.F.E.E.L.M.N.O.PQt",
"Qt.Q.R.S.T.U.E.E.E.E.V.W.X.Y.ZQt",
"QtQt.0.1.W.M.G.E.L.2.R.3.4.5.6Qt",
"QtQt.7.8.9.S.2.G#.###a#b#c#dQtQt",
"QtQtQt#e#f#g.R.R#h#i#j#k#l#mQtQt",
"QtQtQtQt#n#o#a.z#p#q#r#sQtQtQtQt",
"QtQtQtQtQtQt#t#u#v#w#xQtQtQtQtQt",
"QtQtQtQtQtQt#y#z#A#B#CQtQtQtQtQt",
"QtQtQtQtQtQtQtQtQtQtQtQtQtQtQtQt",
"QtQtQtQtQtQtQtQtQtQtQtQtQtQtQtQt"};
