/* XPM */
static const char *ffc[]={
"16 16 70 2",
"Qt c None",
".z c #000000",
".D c #008000",
".C c #00c000",
".A c #00ff00",
".Z c #1e2330",
".7 c #222633",
".Y c #262c3d",
"#a c #272c38",
".6 c #272e3f",
"## c #2e3442",
".5 c #2f364b",
".X c #343c53",
".4 c #374059",
"#b c #3b3f4b",
".3 c #3b455f",
".W c #404a66",
".K c #414b63",
".V c #485474",
".I c #4a5571",
".M c #4c5366",
".U c #4c587a",
".T c #4c597b",
".2 c #4d5771",
"#. c #4f5563",
".S c #4f5c7f",
".0 c #585c66",
".G c #65718e",
"#c c #71747c",
".8 c #797c84",
".O c #7a7f8a",
".x c #899bc9",
".9 c #8f94a0",
".w c #92a2cd",
".v c #99a8d0",
".E c #9aa3bb",
".m c #9dabd2",
".u c #9dacd2",
".t c #a0aed3",
".l c #a2b0d4",
".R c #a3abbf",
".y c #a5b3d6",
".s c #a6b3d6",
".k c #a9b6d8",
".J c #aab6d8",
".r c #aebada",
".1 c #afb4c2",
".j c #b0bbdb",
".L c #b0bcdb",
".H c #b3bfdc",
".i c #b6c1de",
".q c #b8c2de",
".c c #bbc6e0",
".h c #bdc7e1",
".p c #c0c9e2",
".b c #c2cbe3",
".g c #c3cce4",
".o c #c4cde4",
".F c #c7cfe5",
"#d c #c8cacd",
".d c #cbd3e7",
".f c #ccd4e8",
".N c #ced6e9",
".a c #cfd6e9",
".Q c #d0d1d5",
".n c #e1e5f1",
".# c #e2e6f2",
".B c #e3e7f2",
".e c #e9ecf5",
".P c #f7f8fb",
"QtQtQtQtQt.#.a.b.c.c.dQtQtQtQtQt",
"QtQtQt.e.f.g.h.i.j.k.l.m.bQtQtQt",
"QtQt.n.o.p.q.r.s.t.u.v.w.x.yQtQt",
"Qt.z.z.z.z.z.z.z.z.z.z.z.z.z.zQt",
"Qt.z.A.A.A.A.A.A.A.A.A.A.A.A.zQt",
".B.z.A.C.C.z.z.z.C.C.z.z.C.D.z.E",
".F.z.A.C.C.z.z.z.C.C.z.z.C.D.z.G",
".H.z.A.C.C.C.C.C.C.C.C.C.C.D.z.I",
".J.z.A.C.C.z.C.C.C.C.C.z.C.D.z.K",
".L.z.A.C.C.z.z.C.C.C.z.z.C.D.z.M",
".N.z.A.C.C.C.z.z.z.z.z.C.C.D.z.O",
".P.z.D.D.D.D.D.D.D.D.D.D.D.D.z.Q",
"Qt.z.z.z.z.z.z.z.z.z.z.z.z.z.zQt",
"QtQt.R.S.T.U.T.U.V.W.X.Y.Z.0QtQt",
"QtQtQt.1.2.3.4.X.5.6.Z.7.8QtQtQt",
"QtQtQtQtQt.9#.###a#b#c#dQtQtQtQt"};
