/* XPM */
static const char *kit[]={
"16 16 143 2",
"Qt c None",
".Y c #000000",
"#9 c #1e2330",
"#Z c #1f2431",
"ae c #222633",
"#O c #252b3a",
"#8 c #262c3d",
"aj c #272c38",
"ad c #272e3f",
"#Y c #2b3346",
"#N c #2d3549",
"ai c #2e3442",
"#D c #2e364a",
"ac c #2f364b",
"#7 c #343c53",
"ab c #374059",
"ak c #3b3f4b",
"#v c #3b455f",
"#C c #3f4a65",
"#6 c #404a66",
"#p c #414b63",
"#M c #424d6b",
"#o c #465271",
"#5 c #485474",
"#h c #4a5571",
"#w c #4c5366",
"#4 c #4c587a",
"#3 c #4c597b",
"aa c #4d5771",
"#u c #4e5b7d",
"ah c #4f5563",
"#2 c #4f5c7f",
"#g c #505d81",
"#X c #505e81",
"#B c #56648b",
"a. c #585c66",
"#. c #58668d",
"#n c #58678e",
"#S c #5d6c95",
"#W c #5d6d96",
"#R c #5e6e97",
".2 c #606f9a",
"#T c #61719c",
"#t c #63739f",
"#V c #6474a0",
".9 c #6475a1",
"## c #65718e",
"#U c #6677a3",
"#L c #687aa8",
"#A c #697baa",
".U c #6a7ba8",
".1 c #6a7caa",
"#m c #6b7dac",
"#H c #6b7dad",
"#I c #6e80b0",
"#f c #6e80b1",
"#J c #7083b5",
"al c #71747c",
".T c #7184b6",
"#s c #7285b7",
"#z c #7387b9",
".0 c #7487ba",
"#K c #7588bc",
"#l c #7589bc",
"#y c #768abe",
"#e c #778abf",
".8 c #788bc0",
".7 c #788cc1",
"af c #797c84",
".I c #798cc1",
"#E c #7a7f8a",
".Z c #7a8dc2",
".S c #7a8ec2",
"#0 c #7b7e85",
"#k c #7b8fc2",
".O c #7c8fc3",
".P c #7d90c3",
".N c #7d91c3",
"#r c #7e91c4",
".Q c #7f92c4",
"#G c #8090b9",
".R c #8093c5",
".H c #8295c6",
"#j c #8395c6",
"#q c #8597c7",
"#d c #889ac9",
".x c #899bc9",
".G c #8b9cca",
".F c #8c9dca",
".M c #8d9eca",
"ag c #8f94a0",
".E c #8f9fcb",
".6 c #90a1cc",
".w c #92a2cd",
"#c c #95a4ce",
".D c #96a6cf",
".v c #99a8d0",
".3 c #9aa3bb",
"#b c #9baad1",
".m c #9dabd2",
".u c #9dacd2",
".5 c #9fadd3",
".t c #a0aed3",
".l c #a2b0d4",
"#1 c #a3abbf",
".C c #a3b1d5",
".y c #a5b3d6",
".s c #a6b3d6",
".k c #a9b6d8",
"#i c #aab6d8",
".X c #abb7d8",
".L c #adb9d9",
".r c #aebada",
"a# c #afb4c2",
".J c #b0bbd7",
".j c #b0bbdb",
".W c #b0bcdb",
".B c #b1bddb",
"#a c #b3bfdc",
".i c #b6c1de",
".q c #b8c2de",
".A c #bbc5e0",
".c c #bbc6e0",
".h c #bdc7e1",
".z c #bfc9e2",
".p c #c0c9e2",
".b c #c2cbe3",
".K c #c2cce3",
".g c #c3cce4",
".o c #c4cde4",
".4 c #c7cfe5",
"am c #c8cacd",
"#Q c #c8cedd",
".d c #cbd3e7",
".f c #ccd4e8",
"#x c #ced6e9",
".a c #cfd6e9",
"#P c #d0d1d5",
".n c #e1e5f1",
".# c #e2e6f2",
".V c #e3e7f2",
".e c #e9ecf5",
"#F c #f7f8fb",
"QtQtQtQtQt.#.a.b.c.c.dQtQtQtQtQt",
"QtQtQt.e.f.g.h.i.j.k.l.m.bQtQtQt",
"QtQt.n.o.p.q.r.s.t.u.v.w.x.yQtQt",
"QtQt.z.A.B.C.D.E.F.G.F.x.H.I.JQt",
"Qt.K.i.L.m.M.H.N.O.P.Q.R.S.T.UQt",
".V.W.X.u.F.Q.S.Y.I.I.Z.S.0.1.2.3",
".4.s.5.6.H.S.I.Y.7.8.I.8.T.9#.##",
"#a#b#c#d.N.I.7.Y.Y.Y.I#e#f.2#g#h",
"#i.6.F#j#k.8.7.Y.Y.7.8#l#m#n#o#p",
".W#q.H#r.Z.8.8.Y.Y.Y#e#s#t#u#v#w",
"#x.8#e#e#y#y.8.Y.8.Y#z#A#B#C#D#E",
"#F#G#m#H#I#J.0#K#K.T#L#n#M#N#O#P",
"Qt#Q#R#S#R#T.9#U#V#W#X#C#Y#Z#0Qt",
"QtQt#1#2#3#4#3#4#5#6#7#8#9a.QtQt",
"QtQtQta#aa#vab#7acad#9aeafQtQtQt",
"QtQtQtQtQtagahaiajakalamQtQtQtQt"};
