/* XPM */
static char *left[]={
"16 16 90 2",
"Qt c None",
"#s c #414c68",
"#n c #424d6b",
"#g c #455170",
"#t c #495269",
"#m c #4d5a7c",
"## c #505b7a",
"#o c #525a70",
"#f c #536186",
"#l c #57668d",
"#. c #58678e",
".T c #59688f",
".3 c #5a6a91",
"#e c #61729c",
".C c #6678a5",
".L c #6a7cab",
"#d c #6b7dac",
".S c #6f81b2",
".2 c #6f82b3",
".M c #707b9b",
".q c #7387b8",
"#c c #7486b8",
".v c #788bbf",
".4 c #7a839b",
"#h c #7c8294",
".B c #7e91c2",
".k c #8194c3",
"#r c #838ca2",
".K c #8596c5",
".w c #8793b5",
".9 c #8898c6",
".p c #8899c6",
".8 c #889ac7",
".e c #8e9fc9",
".7 c #8fa0cb",
".u c #90a0ca",
".1 c #92a2cb",
".j c #95a4cd",
".A c #96a6ce",
".W c #99a8cf",
"#k c #9aa4c0",
".X c #9baad0",
".Y c #9dabd1",
".o c #9fadd2",
".l c #a0adce",
".P c #a0aed2",
"#w c #a5aab7",
".Q c #a7b4d5",
".f c #a9b5d6",
".d c #a9b5d7",
".J c #abb7d7",
".D c #b1b8c9",
".U c #b5bac6",
"#x c #bcc0c8",
".t c #bfc8e0",
"#u c #c0c3ca",
".O c #c0c9e1",
".i c #c1cae2",
"#b c #c2cae2",
"#a c #c5c8d0",
".F c #c8d0e5",
".r c #c9cfde",
".Z c #c9d1e6",
".6 c #cbd3e7",
".a c #d0d7e9",
"#p c #d1d3d8",
".V c #d5dbeb",
".G c #d9deed",
".z c #e0e5f0",
".0 c #e4e8f2",
".N c #e5e7eb",
".E c #e6eaf3",
".b c #e7eaf3",
"#q c #e9ebf0",
".n c #e9edf5",
".# c #eaedf5",
".c c #edf0f7",
"#v c #eff0f3",
".5 c #f2f3f5",
".x c #f5f6f8",
"#j c #f6f7fa",
"#i c #f7f8f9",
".I c #f7f8fb",
".g c #f9fafc",
".R c #fafbfd",
".m c #fbfbfd",
".H c #fbfcfd",
".s c #fdfdfe",
".h c #fdfefe",
".y c #fefefe",
"QtQtQtQtQtQtQtQtQtQtQtQtQtQtQtQt",
"QtQtQtQtQtQtQtQtQtQtQtQt.#.a.bQt",
"QtQtQtQtQtQtQtQtQtQtQt.c.d.e.f.g",
"QtQtQtQtQtQtQtQtQtQt.h.i.j.k.l.m",
"QtQtQtQtQtQtQtQtQtQt.n.o.p.q.rQt",
"QtQtQtQtQtQtQtQtQt.s.t.u.v.w.xQt",
"QtQtQt.yQtQtQtQtQt.z.A.B.C.DQtQt",
"QtQt.E.F.G.HQtQt.I.J.K.L.M.NQtQt",
"Qt.y.O.P.Q.a.RQt.a.p.S.T.UQtQtQt",
"QtQt.V.W.X.Y.Z.0.1.2.3.4.5QtQtQt",
"QtQt.H.6.7.8.9.p.L#.###aQtQtQtQt",
"QtQtQtQt#b#c#d#e#f#g#h#iQtQtQtQt",
"QtQtQtQt#j#k#l#m#n#o#pQtQtQtQtQt",
"QtQtQtQtQt#q#r#s#t#uQtQtQtQtQtQt",
"QtQtQtQtQtQt#v#w#xQtQtQtQtQtQtQt",
"QtQtQtQtQtQtQtQtQtQtQtQtQtQtQtQt"};
