/* XPM */
static char *lockopen[]={
"16 16 135 2",
"Qt c None",
"#4 c #3e4864",
"#3 c #3f4a65",
"#2 c #424d6b",
"#V c #434f6c",
"#U c #475272",
"#M c #495575",
"#T c #4c587a",
"#C c #4d5a7c",
"#L c #4e5b7d",
"#S c #526084",
"#u c #536186",
"#B c #546287",
"#K c #556388",
"#R c #59688f",
"#1 c #5a6991",
"#k c #5b6b93",
"#A c #5d6c95",
"#Q c #606f9a",
"#0 c #61729d",
"#J c #6474a0",
"#j c #6576a3",
"#c c #6677a3",
"#P c #6778a6",
"#Z c #697baa",
"#I c #6b7dad",
"#z c #6d7faf",
"#t c #6e80b1",
".2 c #6f82b3",
"#i c #7083b5",
"#Y c #7183b5",
"#b c #7184b6",
"#H c #7285b8",
".U c #7487ba",
"#O c #7589bc",
"#s c #768abe",
".R c #778abf",
"ad c #798091",
"ac c #7a8192",
"#G c #7a8dc2",
"#h c #7a8ec2",
"ab c #7c8395",
"#y c #7c8fc3",
"#r c #7e91c4",
"aa c #7f869a",
".N c #8092c5",
"#F c #8093c5",
"a# c #828a9f",
"#a c #8294c6",
".Q c #8295c6",
".M c #8395c6",
"#q c #8597c7",
".F c #8698c8",
"a. c #8790a7",
"#x c #889ac9",
".w c #8a9bc9",
"#g c #8b9cca",
"#9 c #8c96b0",
"#p c #8c9dca",
"## c #8d9ecb",
".E c #8e9fcb",
"#o c #90a0cc",
"#w c #91a1cc",
"#f c #91a2cd",
"#5 c #9299a9",
"#8 c #929db8",
".v c #92a2cd",
"#d c #959fbb",
".3 c #95a1c1",
".G c #95a4ce",
"#. c #96a6cf",
"#n c #97a6cf",
".u c #98a7d0",
"#W c #999fb0",
"#e c #99a8d0",
"#N c #9ba1b2",
".t c #9baad1",
"#D c #9ca3b5",
"#7 c #9ca7c4",
".9 c #9cacd2",
".z c #9dabd2",
".s c #9dacd2",
"#v c #9fa6ba",
".r c #9fadd3",
"#l c #a0a7bd",
".q c #a0aed3",
".p c #a1afd4",
".8 c #a1b0d4",
".l c #a2b0d5",
".V c #a3afcc",
".D c #a4b1d5",
".k c #a4b2d5",
".7 c #a5b2d6",
".j c #a7b4d6",
".6 c #a7b4d7",
".i c #a9b6d7",
".5 c #aab7d8",
".A c #adb9d9",
".h c #b4bfdc",
"ae c #b8bcc6",
".C c #bdc7e1",
".S c #c0c8de",
".B c #c0c9e2",
".x c #c5cee4",
".m c #c8d0e6",
".P c #c8d1e6",
".1 c #d4dbec",
".g c #d8deed",
".y c #dbe1ef",
".J c #dce1ef",
".O c #dde1ee",
".T c #dde2ef",
".I c #dfe3f0",
".o c #e0e5f1",
".c c #e4e8f3",
".b c #e5e9f3",
".d c #e6eaf4",
".a c #eaedf5",
".e c #eef1f7",
".L c #eff2f8",
"#X c #f0f2f8",
"#E c #f2f4f9",
".K c #f3f4f9",
".H c #f3f5f9",
"#m c #f3f5fa",
".0 c #f4f5fa",
".Z c #f4f6fa",
"#6 c #f5f6f9",
".# c #f5f6fa",
".Y c #f5f7fb",
".X c #f6f7fb",
".n c #f9fafc",
".4 c #fbfbfc",
".f c #fcfdfe",
".W c #fefefe",
"QtQtQtQtQt.#.a.b.c.d.eQtQtQtQtQt",
"QtQtQt.f.g.h.i.j.k.l.k.m.nQtQtQt",
"QtQtQt.o.p.q.r.s.t.u.v.w.xQtQtQt",
"QtQtQt.y.r.z.A.B.C.D.E.F.G.HQtQt",
"QtQtQt.n.I.J.KQtQt.L.i.M.N.OQtQt",
"QtQtQtQtQtQtQtQtQtQt.P.Q.R.SQtQt",
"QtQtQtQtQtQtQtQtQtQt.T.Q.U.V.WQt",
"QtQt.W.X.X.X.Y.#.Z.0.1.N.2.3.4Qt",
"QtQt.Y.5.6.7.8.9#.###a#b#c#dQtQt",
"QtQt.Z.z#e#.#f#g.M#h#i#j#k#lQtQt",
"QtQt#m#n#o#p#q#r#s#t#j#k#u#vQtQt",
"QtQt.H#w#x.M#y.U#z#j#A#B#C#DQtQt",
"QtQt#E.w#F#G#H#I#J#A#K#L#M#NQtQt",
"QtQt#E#a#O.2#P#Q#R#S#T#U#V#WQtQt",
"QtQt#X#Y#Z#0#1#S#T#U#2#3#4#5QtQt",
"QtQt#6#7#8#9a.a#aaabacadacaeQtQt"};
