/* XPM */
static char *lockclosed[]={
"16 16 81 2",
"Qt c None",
".a c #000000",
"#o c #810000",
"#n c #860000",
"#h c #8a0000",
"#m c #8d0000",
"#g c #8f0000",
"#b c #930000",
"#f c #980000",
".8 c #9c0000",
"#e c #a20000",
"#l c #a40000",
".3 c #a80000",
"#d c #ae0000",
"#k c #b10000",
".2 c #b60000",
".V c #b70000",
"#c c #bc0000",
"#j c #c20000",
"#a c #c30000",
".7 c #c80000",
".U c #c90000",
".P c #cc0000",
"## c #d10000",
"#i c #d20000",
".6 c #d50000",
".1 c #da0000",
".G c #de0000",
".O c #e10000",
".5 c #e30000",
".0 c #e90000",
".B c #ea0000",
"#. c #ed0000",
".T c #f00000",
".y c #f20000",
".F c #f50707",
".Z c #f60000",
".u c #f80c0c",
".N c #f90808",
".9 c #fc0000",
".H c #fef8f8",
".4 c #ff0101",
".S c #ff0303",
".Y c #ff0404",
".A c #ff0707",
".x c #ff0909",
".t c #ff0d0d",
".R c #ff0f0f",
".X c #ff1212",
".p c #ff1515",
".M c #ff1717",
".Q c #ff1b1b",
".W c #ff1c1c",
".m c #ff1f1f",
".L c #ff2626",
".o c #ff2727",
".l c #ff3030",
".K c #ff3131",
".k c #ff3c3c",
".J c #ff3e3e",
".j c #ff4343",
".I c #ff4848",
".i c #ff4b4b",
".E c #ff5050",
".f c #ff5151",
".r c #ff5252",
".w c #ff5353",
".h c #ff5555",
".e c #ff5656",
".s c #ff5757",
".d c #ff5b5b",
".z c #ff5d5d",
".v c #ff6262",
".D c #ff6b6b",
".q c #ff7272",
".c c #ffbcbc",
".n c #ffc2c2",
".g c #ffcaca",
".# c #ffd9d9",
".b c #ffe0e0",
".C c #fffdfd",
"QtQtQtQtQtQt.#.a.a.a.bQtQtQtQtQt",
"QtQtQtQt.c.a.a.d.e.f.a.aQtQtQtQt",
"QtQtQt.g.a.h.f.i.j.k.l.m.aQtQtQt",
"QtQtQt.n.a.f.e.a.a.f.o.p.aQtQtQt",
"QtQtQt.a.q.r.aQtQt.a.s.t.u.aQtQt",
"QtQtQt.a.v.w.aQtQtQt.a.x.y.aQtQt",
"QtQtQt.a.z.w.aQtQtQt.a.A.B.a.CQt",
"QtQtQt.a.D.E.a.a.a.a.a.F.G.a.HQt",
"QtQtQt.a.I.J.k.K.L.M.N.O.P.aQtQt",
"QtQtQt.a.l.o.Q.R.S.T.G.U.V.aQtQt",
"QtQtQt.a.W.X.Y.Z.0.1.U.2.3.aQtQt",
"QtQtQt.a.t.4.T.5.6.7.V.3.8.aQtQt",
"QtQtQt.a.9#..G###a.2.3.8#b.aQtQt",
"QtQtQt.a.0.1.U#c#d#e#f#g#h.aQtQt",
"QtQtQt.a#i#j#k#l#f#m#n#o#o.aQtQt",
"QtQtQtQt.a.a.a.a.a.a.a.a.aQtQtQt"};
