/* XPM */
static const char *na[]={
"16 16 68 2",
"Qt c None",
".z c #000000",
".X c #1e2330",
".5 c #222633",
".W c #262c3d",
"#. c #272c38",
".4 c #272e3f",
".9 c #2e3442",
".3 c #2f364b",
".V c #343c53",
".2 c #374059",
"## c #3b3f4b",
".1 c #3b455f",
".U c #404a66",
".I c #414b63",
".T c #485474",
".G c #4a5571",
".K c #4c5366",
".S c #4c587a",
".R c #4c597b",
".0 c #4d5771",
".8 c #4f5563",
".Q c #4f5c7f",
".Y c #585c66",
".A c #58a8ff",
".E c #65718e",
"#a c #71747c",
".6 c #797c84",
".M c #7a7f8a",
".x c #899bc9",
".7 c #8f94a0",
".w c #92a2cd",
".v c #99a8d0",
".C c #9aa3bb",
".m c #9dabd2",
".u c #9dacd2",
".t c #a0aed3",
".l c #a2b0d4",
".P c #a3abbf",
".y c #a5b3d6",
".s c #a6b3d6",
".k c #a9b6d8",
".H c #aab6d8",
".r c #aebada",
".Z c #afb4c2",
".j c #b0bbdb",
".J c #b0bcdb",
".F c #b3bfdc",
".i c #b6c1de",
".q c #b8c2de",
".c c #bbc6e0",
".h c #bdc7e1",
".p c #c0c9e2",
".b c #c2cbe3",
".g c #c3cce4",
".o c #c4cde4",
".D c #c7cfe5",
"#b c #c8cacd",
".d c #cbd3e7",
".f c #ccd4e8",
".L c #ced6e9",
".a c #cfd6e9",
".O c #d0d1d5",
".n c #e1e5f1",
".# c #e2e6f2",
".B c #e3e7f2",
".e c #e9ecf5",
".N c #f7f8fb",
"QtQtQtQtQt.#.a.b.c.c.dQtQtQtQtQt",
"QtQtQt.e.f.g.h.i.j.k.l.m.bQtQtQt",
"QtQt.n.o.p.q.r.s.t.u.v.w.x.yQtQt",
"Qt.z.z.z.z.z.z.z.z.z.z.z.z.z.zQt",
"Qt.z.A.A.A.A.A.A.A.A.A.A.A.A.zQt",
".B.z.A.z.A.A.z.A.A.A.z.A.A.A.z.C",
".D.z.A.z.A.A.z.A.A.z.z.z.A.A.z.E",
".F.z.A.z.z.A.z.A.A.z.A.z.A.A.z.G",
".H.z.A.z.A.z.z.A.z.z.z.z.z.A.z.I",
".J.z.A.z.A.A.z.A.z.A.A.A.z.A.z.K",
".L.z.A.z.A.A.z.A.z.A.A.A.z.A.z.M",
".N.z.A.A.A.A.A.A.A.A.A.A.A.A.z.O",
"Qt.z.z.z.z.z.z.z.z.z.z.z.z.z.zQt",
"QtQt.P.Q.R.S.R.S.T.U.V.W.X.YQtQt",
"QtQtQt.Z.0.1.2.V.3.4.X.5.6QtQtQt",
"QtQtQtQtQt.7.8.9#.###a#bQtQtQtQt"};
