/* XPM */
static char *nnim_i_xpm[]={
"32 32 105 2",
"Qt c None",
".b c #000000",
"#h c #020202",
".H c #020206",
"#E c #020606",
".F c #060202",
".K c #060206",
".N c #060602",
".G c #060606",
".y c #060b0c",
".C c #0a0605",
"#u c #0a060a",
".z c #0a0a0b",
".R c #0b0a06",
".M c #0e0e0e",
".o c #0e171d",
".c c #102129",
"#k c #121212",
"#A c #130e0b",
"#l c #133340",
"#n c #144152",
".e c #191919",
"#m c #1b1710",
"#G c #231f18",
".n c #242423",
".0 c #2a2c2e",
".q c #323433",
".x c #362e1f",
".A c #383b3c",
".r c #424445",
".D c #463d29",
".O c #4b4e50",
"#L c #517e96",
".d c #575b5c",
"#e c #59431b",
"#. c #5a4e34",
".L c #636769",
".p c #6f7476",
"#g c #70613d",
"#o c #785b21",
".E c #7e8487",
".Y c #867449",
"#K c #8b9194",
".# c #949da1",
".W c #967533",
"#t c #997309",
".Q c #9b8652",
".i c #9ca5aa",
".w c #9d9e9e",
"#M c #a0a0a0",
".g c #a4aeb3",
".f c #aeb9be",
".v c #b6c2c9",
".I c #b78d31",
"#H c #b8b9b9",
".h c #bac6ca",
".t c #bac6ce",
".4 c #bba568",
".s c #bdcbd2",
".u c #c1cfd6",
".6 c #c6d4db",
".X c #c7a050",
"#i c #cbc7c1",
".T c #ccb26e",
".a c #cfdce2",
".j c #d5e5ee",
"#q c #dfb459",
"#I c #dfe4e6",
".Z c #e0c87f",
"#p c #e1a137",
".k c #e4edf2",
"#J c #e9f2f5",
"#v c #ebd284",
"#F c #ebeef1",
"#d c #efc361",
"#z c #eff4f7",
".5 c #f4db8a",
"#C c #f4fcfe",
"#x c #f5d57b",
"#s c #f9e68f",
"#B c #fafefe",
"#f c #fbb335",
".J c #fdc04b",
".P c #fdd106",
".V c #fdd67b",
".3 c #fec959",
".2 c #fece61",
".B c #fed46c",
"#D c #fed673",
".1 c #feda7a",
".S c #feda7e",
"#y c #fedb5f",
"#b c #fedd75",
".8 c #fede84",
".U c #fedf7e",
".7 c #fee28a",
"## c #fee28e",
".9 c #fee385",
"#r c #fee479",
"#c c #fee68a",
"#a c #feeb8c",
"#w c #feec92",
"#j c #fefafe",
".m c #fefefe",
".l c #ffffff",
"QtQtQtQtQtQtQtQtQtQtQtQtQtQtQtQtQtQtQtQtQtQtQtQtQtQtQtQtQtQtQtQt",
"QtQtQtQtQtQtQtQtQtQtQtQtQt.#.a.a.b.c.b.d.e.bQtQtQtQtQtQtQtQtQtQt",
"QtQtQtQtQtQtQtQtQtQtQtQt.e.f.g.h.a.d.i.j.kQtQtQt.l.l.l.m.nQtQtQt",
"QtQtQtQtQtQtQtQtQtQtQt.o.#.p.q.d.b.r.a.b.s.t.t.u.v.v.b.b.wQtQtQt",
"QtQtQtQtQtQtQtQtQtQtQt.b.b.xQt.p.g.b.b.p.p.y.b.i.z.u.b.b.AQtQtQt",
"QtQtQtQtQtQtQtQtQtQt.b.b.b.b.B.C.D.b.r.b.g.EQt.n.F.a.q.A.jQtQtQt",
"QtQtQtQtQtQtQtQtQtQt.G.E.#.B.x.F.H.s.b.b.I.H.J.KQtQtQtQtQtQtQtQt",
"QtQtQtQtQt.f.j.EQtQt.E.E.L.M.C.n.N.O.b.P.Q.B.M.J.RQtQtQtQtQtQtQt",
"QtQtQtQt.t.j.j.b.r.b.i.i.g.S.b.b.u.b.T.U.V.B.W.X.JQt.bQtQtQtQtQt",
"QtQtQtQtQtQtQt.b.E.q.u.e.Y.Z.E.0.i.K.b.Q.1.1.Q.2.3.J.yQtQtQtQtQt",
"QtQtQtQtQtQtQt.W.b.b.j.e.4.5.b.6.D.7.e.8.S.1.D.B.2.J.bQtQtQtQtQt",
"QtQtQtQtQtQtQtQt.1.U.8.9.M.p.L.i#.##.7#a.8.8.1#b.9.3#.QtQtQtQtQt",
"QtQtQtQtQtQtQtQt.V.H.Z#c.b.0.s.x##.e##.7.8.8.1#d###e#f.bQtQtQtQt",
"QtQtQtQtQtQt.b.Y.b.8#g.b#h.#.p.b.Z#######c.9#c#i.l#j.J#kQtQtQtQt",
"QtQt#l.HQtQtQt.b.S#c.7#h.g.O#m.b.b.7####.7.9.8.G.l.l.J.lQtQtQtQt",
"Qt#n#o#p#qQtQt#r.Q.Y#s.4.#.i.b.Z#t##.T.4.7.R.G#u#g.b.3.b#kQtQtQt",
"QtQtQt#p.J.2.b#r.z#v.d.6#h#r.S#k.x#k.M.n#w.b.Q#x.B.2.Y#y.MQtQtQt",
"QtQtQtQt.J.2.Y.u.b.k#z.b.b.7##.T.H#A.0#..7.8.8.1.B.2#y#y#fQtQtQt",
"QtQtQtQt.I.3#B#C#h.b.b.b.X.T#w#c#f#t#.##.7.8.8#D#b#r.Q#E#f.HQtQt",
"QtQtQtQtQt#g.t.z.b.t#F.z#G#..d.d.b.b#m.7.7.Q.S#D.B#E#b#b#f.7.cQt",
"QtQtQtQtQt.G.t#B.n.s.t#C.a.b#H.i.v.b.a.b.7.8.1.4.2.Q#b#b#m#p.WQt",
"QtQtQtQtQt.b.u.b#h.v.v.t.6.b#I.E#J.P.P.#.b.V.9.B.3#m.D#fQtQtQtQt",
"QtQtQtQtQt#k.b#B.b.e.v.v.v.s.C.k#z.b.b#J.t.b#g.x.X.J#pQtQtQtQtQt",
"QtQtQtQtQtQtQt.b.b#h.d.v.b.L.i.u.b.x.k#F#J.s.b.2#g.J#AQtQtQtQtQt",
"QtQtQtQtQtQtQtQt#oQt.b.f.#.b.P.b.D.P.t.a#F.t#K.b.J.bQtQtQtQtQtQt",
"QtQtQtQtQtQtQtQtQtQt#A.b.g.#.l.r.t.a#I#F#I#I#J.l.b#L.bQtQtQtQtQt",
"QtQtQtQtQtQtQtQtQtQtQt.b.b.b.m.h.v#M#M.l.u#I#I.l.bQtQtQtQtQtQtQt",
"QtQtQtQtQtQtQtQtQtQtQtQtQt.E.l.r.b#M#M#M.u#M#M.lQt.bQtQtQtQtQtQt",
"QtQtQtQtQtQtQtQtQtQtQtQtQtQtQt.OQt.b.b#M#M#M#M#M.bQtQtQtQtQtQtQt",
"QtQtQtQtQtQtQtQtQtQtQtQtQtQtQtQtQtQtQt.b.b.b.b.bQtQtQtQtQtQtQtQt",
"QtQtQtQtQtQtQtQtQtQtQtQtQtQtQtQtQtQtQtQtQtQtQtQtQtQtQtQtQtQtQtQt",
"QtQtQtQtQtQtQtQtQtQtQtQtQtQtQtQtQtQtQtQtQtQtQtQtQtQtQtQtQtQtQtQt"};
