/* XPM */
static char * nnim_button_trans_bw_xpm[] = {
"75 67 256 2",
"  	c None",
". 	c #191919",
"+ 	c #474747",
"@ 	c #202020",
"# 	c #090909",
"$ 	c #0C0C0C",
"% 	c #3C3C3C",
"& 	c #4B4B4B",
"* 	c #585858",
"= 	c #5E5E5E",
"- 	c #101010",
"; 	c #050505",
"> 	c #131313",
", 	c #0D0D0D",
"' 	c #0E0E0E",
") 	c #040404",
"! 	c #0A0A0A",
"~ 	c #111111",
"{ 	c #171717",
"] 	c #747474",
"^ 	c #858585",
"/ 	c #797979",
"( 	c #6D6D6D",
"_ 	c #6E6E6E",
": 	c #515151",
"< 	c #020202",
"[ 	c #000000",
"} 	c #030303",
"| 	c #0B0B0B",
"1 	c #4A4A4A",
"2 	c #949494",
"3 	c #272727",
"4 	c #BABABA",
"5 	c #BFBFBF",
"6 	c #B9B9B9",
"7 	c #ACACAC",
"8 	c #9F9F9F",
"9 	c #303030",
"0 	c #1A1A1A",
"a 	c #181818",
"b 	c #151515",
"c 	c #212121",
"d 	c #383838",
"e 	c #3D3D3D",
"f 	c #3E3E3E",
"g 	c #242424",
"h 	c #2F2F2F",
"i 	c #4E4E4E",
"j 	c #676767",
"k 	c #828282",
"l 	c #2D2D2D",
"m 	c #333333",
"n 	c #8C8C8C",
"o 	c #E6E6E6",
"p 	c #DEDEDE",
"q 	c #E4E4E4",
"r 	c #D7D7D7",
"s 	c #3F3F3F",
"t 	c #8A8A8A",
"u 	c #A6A6A6",
"v 	c #A7A7A7",
"w 	c #868686",
"x 	c #434343",
"y 	c #535353",
"z 	c #1F1F1F",
"A 	c #505050",
"B 	c #555555",
"C 	c #4F4F4F",
"D 	c #6A6A6A",
"E 	c #646464",
"F 	c #D8D8D8",
"G 	c #4C4C4C",
"H 	c #3A3A3A",
"I 	c #1E1E1E",
"J 	c #BCBCBC",
"K 	c #DDDDDD",
"L 	c #AFAFAF",
"M 	c #7C7C7C",
"N 	c #707070",
"O 	c #565656",
"P 	c #161616",
"Q 	c #141414",
"R 	c #F7F7F7",
"S 	c #FEFEFE",
"T 	c #FFFFFF",
"U 	c #FAFAFA",
"V 	c #B8B8B8",
"W 	c #6B6B6B",
"X 	c #D2D2D2",
"Y 	c #545454",
"Z 	c #0F0F0F",
"` 	c #010101",
" .	c #616161",
"..	c #919191",
"+.	c #838383",
"@.	c #939393",
"#.	c #CECECE",
"$.	c #C2C2C2",
"%.	c #808080",
"&.	c #969696",
"*.	c #8F8F8F",
"=.	c #737373",
"-.	c #5F5F5F",
";.	c #BEBEBE",
">.	c #C3C3C3",
",.	c #ECECEC",
"'.	c #F2F2F2",
").	c #6C6C6C",
"!.	c #C4C4C4",
"~.	c #525252",
"{.	c #929292",
"].	c #222222",
"^.	c #606060",
"/.	c #252525",
"(.	c #B3B3B3",
"_.	c #717171",
":.	c #353535",
"<.	c #959595",
"[.	c #A8A8A8",
"}.	c #B0B0B0",
"|.	c #B2B2B2",
"1.	c #BDBDBD",
"2.	c #B6B6B6",
"3.	c #8D8D8D",
"4.	c #999999",
"5.	c #C9C9C9",
"6.	c #888888",
"7.	c #D5D5D5",
"8.	c #898989",
"9.	c #454545",
"0.	c #5A5A5A",
"a.	c #2A2A2A",
"b.	c #060606",
"c.	c #9A9A9A",
"d.	c #626262",
"e.	c #2C2C2C",
"f.	c #A5A5A5",
"g.	c #777777",
"h.	c #7E7E7E",
"i.	c #7A7A7A",
"j.	c #C5C5C5",
"k.	c #767676",
"l.	c #A3A3A3",
"m.	c #313131",
"n.	c #393939",
"o.	c #262626",
"p.	c #232323",
"q.	c #323232",
"r.	c #636363",
"s.	c #2B2B2B",
"t.	c #494949",
"u.	c #C6C6C6",
"v.	c #080808",
"w.	c #1D1D1D",
"x.	c #292929",
"y.	c #696969",
"z.	c #343434",
"A.	c #A4A4A4",
"B.	c #575757",
"C.	c #9C9C9C",
"D.	c #878787",
"E.	c #4D4D4D",
"F.	c #787878",
"G.	c #3B3B3B",
"H.	c #484848",
"I.	c #373737",
"J.	c #1B1B1B",
"K.	c #7B7B7B",
"L.	c #CACACA",
"M.	c #363636",
"N.	c #444444",
"O.	c #282828",
"P.	c #A0A0A0",
"Q.	c #404040",
"R.	c #A2A2A2",
"S.	c #8B8B8B",
"T.	c #818181",
"U.	c #9B9B9B",
"V.	c #D4D4D4",
"W.	c #121212",
"X.	c #8E8E8E",
"Y.	c #666666",
"Z.	c #424242",
"`.	c #848484",
" +	c #727272",
".+	c #686868",
"++	c #656565",
"@+	c #BBBBBB",
"#+	c #070707",
"$+	c #7D7D7D",
"%+	c #595959",
"&+	c #A1A1A1",
"*+	c #ADADAD",
"=+	c #1C1C1C",
"-+	c #464646",
";+	c #7F7F7F",
">+	c #B7B7B7",
",+	c #5D5D5D",
"'+	c #ABABAB",
")+	c #757575",
"!+	c #5C5C5C",
"~+	c #9E9E9E",
"{+	c #B4B4B4",
"]+	c #C0C0C0",
"^+	c #5B5B5B",
"/+	c #AAAAAA",
"(+	c #414141",
"_+	c #AEAEAE",
":+	c #A9A9A9",
"<+	c #9D9D9D",
"[+	c #989898",
"}+	c #B1B1B1",
"|+	c #909090",
"1+	c #B5B5B5",
"2+	c #979797",
"3+	c #6F6F6F",
"4+	c #C1C1C1",
"5+	c #C7C7C7",
"6+	c #F6F6F6",
"7+	c #FBFBFB",
"8+	c #2E2E2E",
"9+	c #D6D6D6",
"0+	c #EAEAEA",
"a+	c #CFCFCF",
"b+	c #DFDFDF",
"c+	c #EDEDED",
"d+	c #E7E7E7",
"e+	c #D9D9D9",
"f+	c #E0E0E0",
"g+	c #EEEEEE",
"h+	c #D3D3D3",
"i+	c #DCDCDC",
"j+	c #E9E9E9",
"k+	c #D0D0D0",
"l+	c #E8E8E8",
"m+	c #E5E5E5",
"n+	c #CCCCCC",
"o+	c #F0F0F0",
"p+	c #E3E3E3",
"q+	c #E2E2E2",
"r+	c #CDCDCD",
"s+	c #D1D1D1",
"t+	c #C8C8C8",
"u+	c #FDFDFD",
"v+	c #F3F3F3",
"w+	c #F1F1F1",
"x+	c #EBEBEB",
"y+	c #CBCBCB",
"z+	c #DADADA",
"A+	c #FCFCFC",
"B+	c #EFEFEF",
"C+	c #E1E1E1",
"D+	c #F8F8F8",
"E+	c #F9F9F9",
"F+	c #F5F5F5",
"G+	c #F4F4F4",
"                                                                                                                                                      ",
"                                                                  . + @ #                                                                             ",
"                                                              $ . % & * = - ; >     , $ ' ) ! , ' ~ .                                                 ",
"                                                            { ] ^ / ( _ : < [ } | 1 2 3 4 5 6 7 8 9 '             0 . . . . 0 a                       ",
"                                                          b c d e f g ) h i j k l 6 m n o p q q r c             - s t u v u w ~ x y z                 ",
"                                                        c A B y C * D E F 4 G H I J b J K L M N O | P $     - Q % R S T T U D V 4 W X Y               ",
"                                                      Z m } ` [ [ ~  ...: 4 ! +.9 @.{ #.$.; I %.&.*.t M =.-.h ;.$.>.X ,.K #./ '.s D ).!.>             ",
"                                                    b ` 9 ~.O i l $ + {.].% $ ^./.w a (._.[ :.<.[.}.|.(.1.2.B $.t $.>.$.1.3.4.5.. 6.9 7.9             ",
"                                                ! ~.3.8.+.9.0.a.b.Z $ c.c [ [ ` ` d.e.f.*.[ < & g.h.).0.k i.~.f # w j.!.j k.l.J | M m.j.n.            ",
"                                                  b o.p.. , 3 /.o.  Z <.g ` q.r.s.~ t.f u.Y v.| Y w.0 I g ~ x.i.y.z.: A.B.i.C.J ' +.s.5.d             ",
"                                                  n.t D.h E.w.I F.g Z $ } I x.Q $ [ G.q.H a { - H.c   a     a I > ! ^ I.J.K.=.L.M.n d #.x.            ",
"                                                . 1 C : N.O.I.Q P.f.x.s.} O.^ :.l [ ` B C.Q.{ . R.h.x .   ' E.    ! o.S.T.U.3 V.& W.A.X.Q             ",
"                                          g     g W y.y.E H Y i |.7 w.1 ` Q.Y.d.e ' 1 Z.M.k z $ x.n.F.y J._ d.    I   ; ~ > < :...k / 0               ",
"                                          @ P   Q q.& H.0 1 m.}.2.`.~ & `  +Q.O.L |.9.Q.).W.n.: _ = & f.8 n d I ~           J.a                       ",
"                            J.0 I o.        - - 9  ..+y.h e b D.6 N # H.< y B.# c ++@+r.v.b.8.k $ :.p.2 P.P.] a.> #+.                                 ",
"                      J./ ..2 <.G.~.Z I       | ++$+$+$+G ^.f %+C.D.$ 9 O I ; +.k.m.> - H.^.Q.&+h _.U.*+= R.u &+e I                                   ",
"                    b W.q.@ Z W._  +9.m n.    =+` % -+Z.J.:.;+>+8 T.| O.,+(.2 r.( U.g c W.d I.-+'+L |.$+z.7 u r.,+{ a |         ,                     ",
"                a & B.Y.N )+G.n.0 ! ++$+$ q.].=+9.r.r.i W.M.!+;.1./ | e.! G *+L.-.O.; $+c ] t ~+>+2.{+* Y 8 %+%.g.y.a.      Q |                       ",
"                W.G Q.M.e.].> ' q.%.H.l *.z.w.{ & 1 1 H.Z Z.~.]+;.t., Z ^+0.W.H f $+m.^ r.Y J @+@+V ( *.^.P./+7 = P.*.e.c + Z.                        ",
"                                ' m.U.,+9.t ;+] w.' | ) Y G.4 @+= h > ].&.P.8.M.! s = s.~+(+@+J @+|.U._+ .|.L _+^.:+A.<+[+/ 0                         ",
"                            Z ~   ! 9.~+( H S.J. .1 A.3 . % }+6.N D 1.D.Z.^+4.B { |+: F.]+>+;.;.J @+@+6 r.1+|.*+).'+v A./ O.                          ",
"                              b.. % v.x.d.E.Z.2+ .G s & s j = O q.0 3+*+7 /.l b..+>.P.E 5 4+]+5 ;.J J 4 P.|.(.}.[.7 ~+A.{.b J.b                       ",
"                                0 3+|+$+=.H.w.' z e.p.x / +.}+}+& 1 l ! 0 -.M E.s !.P.=.&.4+4+]+5 ;.1.4.E.2.1+(.'+* )+[.l.+ |                         ",
"                                  { |+6 @+J 1+c.).3+l.]+!.,+y./.0 <.<+] G.$ 3 e.-.j.[.2.(.$.J 4+4+L ] B.;+6 >+R.,+0.B :+f.k b                         ",
"                                P - f 4 @+1.;.]+4+4+$.k / j ).@.( c 1 ..N < ++*+j.u.j.j.!.<.( 4+4+4+]+M L 4 '+B (.!.( g.u U..                         ",
"                                  g t.@+J +.0.<.J $.>.1.G.z 3 ~+5+J K.. ~ 0 _+u.J w u.u._+R.T.>.4+4+]+A.J V O _+u.u.>+i @.&+a.H.].                    ",
"                            0        +J 1.@+_ b s !+T.P.v 9 < v.:.U.D.^.r.].;+u.@.T.]+u.j.j.@+!.4+4+4+5 1.k.= (.;.{+u 6.C A.I._+Z.                    ",
"                          J.w.i e.! =.u (.5 4+[+* v {. +L (+,+/ G $ | 0 I.e 9.u.4+u.u.u.u.u.j.!.>.2 6 5 6 l z.).$+ +/ K.> )+n.i  .J.                  ",
"                              I k.6.r.y j V 4+4+D.;+= -.a.=+h.2 8 2 ~.[ < g z.6 2.u.u.u.]+V j.!.<.W @+]+V K.M.6+T S X 6+E.~+% 6 N.#+                  ",
"                                I s (.;.]+]+4+$.>.-.T.B 4+l.W H H )+Z.[ | -+$ i.3.4+u.u.{.4.j.!.>.1.4+4+]+;.9.'.T 7+* K i ~+h * |.,                   ",
"            I p.@           g   ~ [ (+{+5 4+~+U.!.v y x.G w 7 3.8+9.w.[ ) -+=+^.j.j.u.u.]+j.u.j.!.>.4+4+4 F.M.3.9+T S T 1 8 h 1.>.#                   ",
"      ~ b.-+..@.{.Y.O.        - ) .+_.Y 2..+%+2.&.1 %++ z q.z 0 w.B.-.| } x.e a V u.u.6 $.>+++j.!.r.C %+W k ~+..G ( ,.0+I.v % 2 t I P                 ",
"      I   /._ M |+R.n m         z [.J [+~+r.T.}+g.z f Q.k.8 c.w ^.v.` e.: | G W...u.u.++;.h.3.u.J ~.i Y 1 e I.:+>+=..+ .( '++++ i ^ {                 ",
"            p.t 4.<+A.&+n.      { }+J ;.]+4+5 8 x.( | z U.&+++Q ~ b ; h N ) I.:.9.j.>+B.u.)+;.u.j.>./+h.,+O r.{+6 >+,+p.v :+B =+q.3+D P               ",
"              O.k 8.<+/+P.9.Z a.Z._+L h.K.P.4.!+% B 6 $++ I.Z +.(.1+A.j . b.P i b C.u Y.5+( j.u.|+].> :.~.= _ 1+6 2.D.Y *+).3.:+8 !+I |               ",
"                & &+A.:+7 '+2 A.G.c g o.~ P % l ) $ G.w V c B ;.4+>.$.5 ~+F.~ Z.g Q.:+ .5+W !.u.2+^.v 5 4+;.1.@+6 2.@.t.n _ _+*+_+&+E.Z.w.            ",
"                > _.n R.7 _+_+I.j >+1..+$+8.a+B 8.:., b.' Z }.>.j.u.j.L F.A.%+. -+# f.Y $. +}.j.!.!.4+4+]+;.J 4 6 2.$+~.Y.'+*+W f.@.B ] W.            ",
"                  a.i.[+7 _+3+A o o w d.K.< f.. n.: x.&.(+H.5 j.u.j._+=+Z I...' N.3 : 2+<+4.d.>.!.>.4+4+]+1.J @+6 2.^.m.&.n (+^ 7 C ^ 6.~             ",
"                    : P.'+~+e.b+c+d+A !.W.[ =.M.# P a H.=+] @+1+J j.t.(+'+R.4.A ].G , @.@+!.~+6 !.$.4+4+5 1.J @+>+L ].x $+,+J.i :.q.&.S.Z $           ",
"                    ].8 /+,+E.e+f+)+f.^+W.E A s c._+_+`.~ _ F.Y.&.<., H & B W j | e 3 m.$+u j.!.>.4+4+{+5 1.J 4 >+_.@ y 4 4 / ^+{.I.2+T.o.3+=+        ",
"                      C T.J.2 >.f.a.4 #+y.!.;.1+c+g+h+h * -+=.@.. Z I.; z Q ) } [ | H ' ] ]+!.!.$.4+R.F.1.J @+6 l.: l.M.6 6 ~+( 6 G 2+ .Y >.j         ",
"                      I k.c @+!.W S.i+h.Z.2+$.5+j+{+0 z.t.8+m./.. K.B.y.J 2.2+y.9.@ ; < J.|.!.4+4+4+&+1 2.@+@+}.= [.L y P.6 2.L 4 : 2 1 T.4+{+h ].9   ",
"                      { q.H.u.j.O k+O.z.(+@ @+$.5+L.|+1  +B.M.Z 5+& {.t.:+5+4+(.* N ;+& ) 9 P.g.1.4+]+|.@+@+>+^+8.}+_+t  +4 6 6 2.% D.0 E u k =.|     ",
"                      x.b.N >.4 ^. +[ & >+V >.$.$.!.V.l+g+g+q ;.=.;.u Z.N.w m+8 /.f a.Z.r.Z., s 6 ]+;.1.@+4 1+7 (.L *+l.a.[.4 6 g.& m.0 $ 8+a.P       ",
"                        < o.&+~+K.x.[ #+P.>.$.$.$.$.>.j.9+j+g+|+g.c+r l % }.c+^ y T.;+= - _.i.Z 8+R.J 4.C.6 >+{+_+_+7 0.z h !+Z.A & O.                ",
"                        { | Z % h.. [ [ f @+4+$.$.$.$.@+D ~+>+,+&.f n+0.n+c+g+Y E T.T..+' R.!.u o.' %+&+i.V {+(.j *+&++ &+8.K.+.G.c                   ",
"                        v.W.#+[ k {.D.N.[ t h.4+$.$.$.(.^.c.~.f.(+E i.X.c+,.o+N.g x D w.6.r $.>.V :.`  .y.2.^ l.K.+.<.;+l.%+..H 8+                    ",
"                      9 t.  x } 0.8.b < $ 3 i.Y.>.$.>.$.2.[+1 4+v ~.x p+c+,.c+9+{+..H = j+,.q+u.$.>+H.; o.|.C.D ,+~.l.<+~+y.x.b.G.                    ",
"                              x I 1+i w ~.< f M r.1.>.$.!.y U.$.!.~+*+j.r l+r+= Y A.c+,.,.,.c+o u.4+$.z., &+L 7 )+{ %./ C  +3   {                     ",
"                                G J.:.w.H.% ` s.X.N.:+V @++ u./ . n.* i.U.>+3 .+] 9 f.c+,.,.,.c+0+5+{.M G.Z._+n [.T.: ~+t.J.b                         ",
"                                    C H Y.(+/.; 8+F.:.h n j j.x m.s e 9 e.~+m.T.T._ ^+0+,.c+c+c+,.L.).r.9.; =.i.X.l.[+..o.                            ",
"                                      o.N.    n.~ e (.d.].`.j.E.%+..P.&.].[.].g.;+f y.J s+m+j+p+7.>.@+x.^..+s :+6.V A.d m.x                           ",
"            t+u+u+v+          u+u+t+M.O.        F._+u+S 8 c h.8.G.$.S u+a.T.h.M.o.H 3.% q+S o+$.!.;.G h.r n+#.S u+S 4+b ^+h   o+u+u+u+w+              ",
"            L.T T S f+        T T n+G.        -+-+!.T T R ~+l % w.5 T T t.l.!.4+_+++0 Y.g+T a+w F.M Y n+q+b+x+T T T '.g.e./.w.w+T T T '.              ",
"            y+T T T U         S T y+          g   z+T T T p E )+e...T T !.$.$.>.k - )+6.g+T e+).d.n.7 $.$.!.K T T R S        +S A+7+T '.              ",
"            a+T T T T B+      T T a+          H   K T T T T F.{ W 4+T T (.]+!.>.(.Q i.D.,.T w+;.(.+ I.}+3.x *+T T y+T d+    C+T w+c+T '.              ",
"            a+T T D+T T F     T T a+              K T 7+E+T B+& ! S.T T D e = `.&.N.s.O.p T w+>.|.0.m.f W 8.u.T T c.T c+    v+T z+x+T '.              ",
"            a+T T i+7+T 6+    T T a+              K T '.f.T T @+i [.T T -+y.i._.^.C N.H.q T w+~+c.x -.x ].| '+T T   7+T     F+T k+x+T '.              ",
"            a+T T   d+T T o   T T a+              K T g+y.w+T A+g.#.T T l #+W.b , ~ Q p.b+T j.< } b.P Z H.:.z+T T   D+T K   T D+  x+T '.              ",
"            a+T T     w+T 7+9+T T a+              K T G+    u+T ,.s+T T  +g ~.  8+x.A o.q+T p+0.m.C     e l V.T T   o T w+d+T o+  x+T '.              ",
"            a+T T     r T T D+T T a+              K T D+    q T T D+T T A o.    I H     f+T '.  m H       p.7 T T   q T v+w+T K   x+T '.              ",
"            s+T T       d+T T T T s+              p T R       G+T T T T z.      O.      p+T '.  C ].        1.T T     A+T T T     x+T '.              ",
"            X T T         E+T T T X               b+T R       C+S T T T d     E+V       o+T '.    1+u+      D+T T     g+T T U     ,.T '.              ",
"            X T T         f+T T T X     w+T l+    b+T R         x+T T T =     T T p     w+T '.    l+T w+    T T T     p+T T c+    ,.T '.              ",
"            X T T           B+T T X     w+T l+    b+T D+          U T T       T T b+    w+T '.    l+T w+    T T T -+  9+T T p     ,.T '.              ",
"                                                                                                                                                      ",
"                                                                                                                                                      "};
