/* XPM */
static char * nnim_button_trans_bw2_xpm[] = {
"55 49 244 2",
"  	c None",
". 	c #131313",
"+ 	c #2C2C2C",
"@ 	c #454545",
"# 	c #3A3A3A",
"$ 	c #171717",
"% 	c #0A0A0A",
"& 	c #0C0C0C",
"* 	c #0D0D0D",
"= 	c #050505",
"- 	c #0E0E0E",
"; 	c #2D2D2D",
"> 	c #646464",
", 	c #696969",
"' 	c #626262",
") 	c #585858",
"! 	c #0B0B0B",
"~ 	c #0F0F0F",
"{ 	c #575757",
"] 	c #505050",
"^ 	c #7D7D7D",
"/ 	c #9C9C9C",
"( 	c #969696",
"_ 	c #828282",
": 	c #212121",
"< 	c #202020",
"[ 	c #262626",
"} 	c #252525",
"| 	c #1A1A1A",
"1 	c #282828",
"2 	c #363636",
"3 	c #424242",
"4 	c #343434",
"5 	c #4E4E4E",
"6 	c #6F6F6F",
"7 	c #636363",
"8 	c #3E3E3E",
"9 	c #939393",
"0 	c #5F5F5F",
"a 	c #D0D0D0",
"b 	c #CACACA",
"c 	c #BEBEBE",
"d 	c #A4A4A4",
"e 	c #191919",
"f 	c #323232",
"g 	c #BFBFBF",
"h 	c #C5C5C5",
"i 	c #9D9D9D",
"j 	c #666666",
"k 	c #5C5C5C",
"l 	c #242424",
"m 	c #1F1F1F",
"n 	c #2E2E2E",
"o 	c #6D6D6D",
"p 	c #838383",
"q 	c #9F9F9F",
"r 	c #7F7F7F",
"s 	c #CBCBCB",
"t 	c #606060",
"u 	c #7A7A7A",
"v 	c #565656",
"w 	c #404040",
"x 	c #5E5E5E",
"y 	c #9B9B9B",
"z 	c #DDDDDD",
"A 	c #EFEFEF",
"B 	c #E7E7E7",
"C 	c #A6A6A6",
"D 	c #8D8D8D",
"E 	c #292929",
"F 	c #444444",
"G 	c #494949",
"H 	c #303030",
"I 	c #151515",
"J 	c #525252",
"K 	c #373737",
"L 	c #676767",
"M 	c #9A9A9A",
"N 	c #A1A1A1",
"O 	c #A9A9A9",
"P 	c #8F8F8F",
"Q 	c #8C8C8C",
"R 	c #C7C7C7",
"S 	c #ABABAB",
"T 	c #949494",
"U 	c #B6B6B6",
"V 	c #555555",
"W 	c #5B5B5B",
"X 	c #393939",
"Y 	c #3D3D3D",
"Z 	c #1D1D1D",
"` 	c #101010",
" .	c #3B3B3B",
"..	c #515151",
"+.	c #080808",
"@.	c #3C3C3C",
"#.	c #1B1B1B",
"$.	c #1C1C1C",
"%.	c #ADADAD",
"&.	c #333333",
"*.	c #4F4F4F",
"=.	c #4A4A4A",
"-.	c #414141",
";.	c #313131",
">.	c #1E1E1E",
",.	c #121212",
"'.	c #595959",
").	c #2A2A2A",
"!.	c #434343",
"~.	c #616161",
"{.	c #A3A3A3",
"].	c #3F3F3F",
"^.	c #989898",
"/.	c #090909",
"(.	c #2F2F2F",
"_.	c #737373",
":.	c #6B6B6B",
"<.	c #6A6A6A",
"[.	c #4C4C4C",
"}.	c #8E8E8E",
"|.	c #717171",
"1.	c #222222",
"2.	c #4D4D4D",
"3.	c #535353",
"4.	c #959595",
"5.	c #656565",
"6.	c #383838",
"7.	c #111111",
"8.	c #484848",
"9.	c #A5A5A5",
"0.	c #7C7C7C",
"a.	c #353535",
"b.	c #7B7B7B",
"c.	c #272727",
"d.	c #767676",
"e.	c #868686",
"f.	c #2B2B2B",
"g.	c #6C6C6C",
"h.	c #8B8B8B",
"i.	c #474747",
"j.	c #757575",
"k.	c #A0A0A0",
"l.	c #232323",
"m.	c #545454",
"n.	c #818181",
"o.	c #B5B5B5",
"p.	c #747474",
"q.	c #787878",
"r.	c #5D5D5D",
"s.	c #A7A7A7",
"t.	c #B3B3B3",
"u.	c #464646",
"v.	c #B9B9B9",
"w.	c #5A5A5A",
"x.	c #707070",
"y.	c #858585",
"z.	c #A2A2A2",
"A.	c #727272",
"B.	c #B2B2B2",
"C.	c #848484",
"D.	c #909090",
"E.	c #BCBCBC",
"F.	c #BBBBBB",
"G.	c #B1B1B1",
"H.	c #777777",
"I.	c #AEAEAE",
"J.	c #A8A8A8",
"K.	c #919191",
"L.	c #BDBDBD",
"M.	c #BABABA",
"N.	c #B0B0B0",
"O.	c #999999",
"P.	c #161616",
"Q.	c #808080",
"R.	c #4B4B4B",
"S.	c #C0C0C0",
"T.	c #B7B7B7",
"U.	c #929292",
"V.	c #686868",
"W.	c #141414",
"X.	c #B8B8B8",
"Y.	c #ACACAC",
"Z.	c #C6C6C6",
"`.	c #C1C1C1",
" +	c #B4B4B4",
".+	c #888888",
"++	c #9E9E9E",
"@+	c #C3C3C3",
"#+	c #878787",
"$+	c #8A8A8A",
"%+	c #C4C4C4",
"&+	c #6E6E6E",
"*+	c #FBFBFB",
"=+	c #C8C8C8",
"-+	c #181818",
";+	c #979797",
">+	c #030303",
",+	c #C2C2C2",
"'+	c #AFAFAF",
")+	c #E2E2E2",
"!+	c #F8F8F8",
"~+	c #797979",
"{+	c #7E7E7E",
"]+	c #898989",
"^+	c #AAAAAA",
"/+	c #DFDFDF",
"(+	c #DBDBDB",
"_+	c #CDCDCD",
":+	c #DEDEDE",
"<+	c #D1D1D1",
"[+	c #EAEAEA",
"}+	c #DCDCDC",
"|+	c #EDEDED",
"1+	c #CFCFCF",
"2+	c #E1E1E1",
"3+	c #D9D9D9",
"4+	c #D5D5D5",
"5+	c #E8E8E8",
"6+	c #ECECEC",
"7+	c #E9E9E9",
"8+	c #000000",
"9+	c #F6F6F6",
"0+	c #FAFAFA",
"a+	c #FDFDFD",
"b+	c #D7D7D7",
"c+	c #E5E5E5",
"d+	c #F3F3F3",
"e+	c #FFFFFF",
"f+	c #E4E4E4",
"g+	c #FCFCFC",
"h+	c #CECECE",
"i+	c #FEFEFE",
"j+	c #F9F9F9",
"k+	c #F4F4F4",
"l+	c #F1F1F1",
"m+	c #EEEEEE",
"n+	c #F2F2F2",
"o+	c #E6E6E6",
"p+	c #F0F0F0",
"q+	c #F7F7F7",
"r+	c #DADADA",
"s+	c #F5F5F5",
"t+	c #E0E0E0",
"u+	c #EBEBEB",
"                                                                                                              ",
"                                              . + @ # $ %     & * = & - .                                     ",
"                                            ; > , ' ) . ! ~ { ] ^ / ( _ :           < [ [ } |                 ",
"                                          1 2 3 @ 4 5 6 7 8 9 0 a b c d e         f ( g h i { j k             ",
"                                        < l : m n o p q 8 8 r , s @ t u k v , w x y z A B C g o p D           ",
"                                      } E F G H I k J K 1 f L ' D ! k M d N O _ P Q c R S T U 8 V C ;         ",
"                                    n 0 W X Y Z `  ...+.Z | @.{ M #.$.k ..@ v G ] 8 u %.L D S &.*.q X         ",
"                                    n j =.4 < -.;.Z >.$ + Z ,. .'.l ` Y m |   | ;.).!.~.3 ^ %.G v {.n         ",
"                                    ].) J 2 2 j ^.E I f ' 4 /.(._.].$ :.' 2   2     | k <.[.}.[.o |.          ",
"                              1.    8 '.2.-.3.y 4.1 >.[.5 5.k F 2.F ; @ 3.|.> <.6.      ,.` [ Q ^             ",
"                    1.m l       7.$.8.~.8. .@.9.0.m m [.6.a.u b.;.c.d.K  .6 i e.].. `                         ",
"                1 , o > 3.f.c.    [ x g.v 2.W h._ $ i.G 2.j.8.$ (.5 > ~.D k.L C ( 3 Z                         ",
"            + 8 @ 3.&.n # J G 1 l.: F m.;.; n.o.r I + p.k.q.[.f ).r.6 s.t.e.{ T d.> a.$     *                 ",
"            ).i.8 a.< #.G { ] J ).H i.u.n 4 q.v.x `  .) 3 @ w.J j x.o.v.d y.o k.z.A.D *.K w                   ",
"                        #., <.' u i.).6.[ @.B.C.2.*.> y.x.< { ..D._ E.F.G.%.H.B.I.H.J.N r ].                  ",
"                      & l l '.3.W L J w.6.2.d.{ w K.D.i.w Y N q.O c g L.E.M.( t.N.O.s.{.g.$.P.                ",
"                        ].b.Q.:.].&.6.3 g.0.O.5.] 8 ; R.{ u.o.K.( S.S.g T.i x.o.G.U.V.M h.+                   ",
"                        W.0 M.E.X.N 9 Y.d _.5.=.k b.5.| ..Q.c v.F.J.I.S.Y.u T U D.C.d.y.q 5                   ",
"                        $.u.F.d Q.Y.S.c Q.# m.9.T k &.E O g d Z.v.4.N `.`.O  +y .+c o.o M x @.                ",
"                    #.    |.X.M.Q.8 7 .+++3.Z &.<.0 3.X 9 Y.i @+h @+S.`.v.g G.x #+S k.$+) > 0.F               ",
"                      @.5 j Q.J.L.4.#+d., Y j.r ) l I (.|.L.h Z.@+S.%+%.U.L.Y.G $+g B.U G t _.@.              ",
"                        8 Q O T.g E.C.|.j.$+<.] &+; = f 3 U.S.Z.O S %+M.t.S.E.n. +*+S.=+7 > V.g.              ",
"        F i.R.        - -+[.z.%.P S ;+J K 0 H.u.3 l.>+f 4 ^.h %+`.v.T.,+N ++y o 0.'+)+!+k L ;+b.,.            ",
"    -+>.0 e.}.|.#     ,.V O.h.Q.q.k.[.u.=.:.5...; l ).: f A.@+O G.P d M.v 3.{ k $+.+y.M o 0.' ' f             ",
"        n d.;+++#+G     g.X.G.G.I.|.J (.W K.m.f E l.*.-+a.-.U Q O #+g L.;+~+W ) ;+U h.].k.{+8 3.t 1.          ",
"          6.b./ J.h.] 3.k j.{ 0 g. .;.Q.b.-.G S M.{.L &.E ).u .+Y.C.h ;+-.~.^ ]+^+v.{.0 U.y.s.( 2.l.          ",
"            =.}.9.Y.s.w.A.e.m.0 h.] X : # 1.q @+h g ^..+K 4 X _ s.p c T.^+L.S.L.F.v.q r.0.{.Q {.&+{ P.        ",
"              0 y S q.h.)+U.|.n ~+).8 K k i.c @+,+d.&.) ~.f &.<.N 9 i @+,+`.g L.F.X..+].h.t &+0.6 H.`         ",
"              # y ( 5 /+b y.L l v !.'.t w w.^.i 9.f > {+_.n X @.}.o.X.,+`.L.c L.F.N.r.].4.j J J 6 u 1 ;       ",
"                <.0 g.@+j.9 (.#+z.G.(+I.@ 2.~+r.&.} l.c.< * Z [ k E.%+@+v.4.U E.M.O.o ] v.C d.D H.:.|._.      ",
"                ).G ^.^+C.{.k ~.T.a R F u.-.; 2 j 5.T T.T k a.< I O.t.E.v._ %.M.{.u %.H.++X.t.T p.] 9 %.3 l.  ",
"                < # O 9.{+;.{ ~+U @+Z.t.S %.Q y.}.Q.t {.@+t J R.@.].m.s.S.F.F.v.;+z.'+++5.o.T.~+] } i.) @.    ",
"                  e {+K.m.& w B.,+,+,+Z._+:+<+y.,+M 3 O @+0 |.j n o i.@ {.J.z.X. +S %.q.a.0 t ] 2             ",
"                  ` & 8 t &.Z d.%.,+,+S.U.}.Q H.W O.%.[+'+5 g.5.].v.v.L [ <.Q.'+^+0.i g.( {+<.;.              ",
"                H E E >.0.[.W.H H.q ,+`.S ^., M t b.}+|+1+$+o G {.2+_+E., E R.s.e., r 4.P '.[ 2               ",
"                      2 5.{ r.c. .6 ^.L.`.p.N %.D N =+3+O.j M 4+5+6+5+a F., ; i d &+3.n.w.-.  $.              ",
"                        f # 6.i.e 6.x d.K.:.S -.6...j U.8.H.w.o.6+|+|+7+G.q.F 3.]+^.n.D 4 $                   ",
"        8+8+8+      8+8+8+8+K G   l.8+8+R.g.d [.8+8+8+p 8.{+m.8+8+8+8+}+M.5.J 8+8+8+8+8+f   8+8+8+8+8+        ",
"        8+9+0+8+    8+a+2+8+1     8+^.9+b+8+6 8+J.*+8+r q.*.5 8+F.!+8+B.D.d.s 8+|+*+c+8+u.).8+a+a+d+8+        ",
"        8+!+e+d+8+  8+e+f+8+      8+ +g+a+h+8+8+9 e+8+'+@+C !.8+h+d+8+&+L S a 8+9+i+j+8+  8 8+a+i+k+8+        ",
"        8+!+e+i+l+8+8+e+c+8+      8+}+a+e+j+5.8+C e+8+F.g '+&.8+a 0+8+i G $+T 8+B 9+B m+8+8+d+n+j+k+8+        ",
"        8+!+!+j+j+)+8+e+o+8+      8+z *+6+9+a F y.e+8+..x.p G 8+G.*+8+s.2.].3.8+7+p+8+9+8+8+0+8+q+k+8+        ",
"        8+!+q+6+a+k+  e+o+8+      8+z 0+c b+q+q G.e+8+&.Y &.f.8+B.k+8+w [ f.&.8+6+e+8+a+8+8+0+8+q+k+8+        ",
"        8+!+e+  d+g+f+e+o+8+      8+z 0+f+  *+6+r+e+8+; 3 [ ; 8+t.q+8+f w    .8+A e+8+j+|+s+n+8+q+k+8+        ",
"        8+!+e+8+t+0+g+e+o+8+      8+z *+!+8+|+a+g+e+8++   1.K 8+2+*+8+@.;.    8+c+e+8+8+q+*+8+8+q+k+8+        ",
"        8+j+e+8+8+s+i+e+o+8+      8+/+*+q+8+  d+e+e+8+    {.  8+u+*+8+  N     8+9+e+8+8+e+a+8+8+q+k+8+        ",
"        8+j+e+8+  8+9+e+B 8+  j+u+8+/+*+q+8+8+  *+e+8+    *+2+8+l+*+8+  |+q+  8+e+9+8+8+e+k+8+8+q+k+8+        ",
"        8+8+8+8+    8+8+8+8+  j+  8+8+8+8+    8+8+8+8+    e+  8+8+8+8+  A q+  8+8+8+8+8+8+8+8+8+8+8+8+        ",
"                                                                                                              "};
