/* XPM */
static const char *offline16x16[]={
"16 16 143 2",
"Qt c None",
"#8 c #390707",
"#Y c #3a0707",
"ad c #3c0b0b",
"aj c #411111",
"#N c #430a0a",
"#7 c #470808",
"ac c #4a0909",
"ai c #4c1515",
"#X c #520a0a",
"ak c #532727",
"#M c #550a0a",
"#D c #570a0a",
"ab c #580a0a",
"#6 c #620c0c",
"aa c #680c0c",
"#9 c #6c4747",
"ah c #6d3333",
"#w c #6f0d0d",
"#q c #721616",
"#x c #722b2b",
"#C c #770e0e",
"#5 c #780e0e",
"#L c #7e0f0f",
"a# c #821f1f",
"al c #826262",
"#i c #841717",
"#p c #851010",
"#4 c #881010",
"ae c #896b6b",
"#Z c #8b6d6d",
"#3 c #8f1111",
"#2 c #901111",
"#E c #916666",
"#v c #931111",
"#1 c #961212",
"#h c #971212",
"#W c #981212",
"#a c #a13232",
"#B c #a31313",
"## c #a61414",
"#o c #a71414",
"ag c #a87a7a",
"#R c #af1515",
"#V c #b01515",
"#Q c #b21515",
".3 c #b51515",
"#S c #b71616",
"#u c #bb1616",
"#U c #bd1616",
"#. c #be1717",
"#T c #c01717",
"#K c #c61818",
".V c #c61b1b",
"#A c #c71818",
".2 c #c81818",
"#n c #ca1818",
".4 c #ca7171",
"#G c #cb1818",
"a. c #cb9696",
"#0 c #cc7e7e",
"#H c #cf1919",
"am c #cfc3c3",
"#g c #d01919",
"#F c #d43636",
"#I c #d51919",
".U c #d61919",
"#t c #d71a1a",
"#O c #d7caca",
"#z c #da1a1a",
".1 c #db1a1a",
"#J c #dd1a1a",
"#m c #de1a1a",
"#y c #df1b1b",
"#f c #e01b1b",
".9 c #e21b1b",
".8 c #e31b1b",
".J c #e31c1c",
".0 c #e31e1e",
".T c #e31f1f",
"#l c #e42020",
".P c #e42121",
".Q c #e42323",
".O c #e42424",
"#s c #e42626",
".R c #e42727",
".S c #e52828",
".I c #e52c2c",
"#k c #e52e2e",
"#r c #e63030",
"#e c #e63737",
".y c #e73939",
".H c #e73b3b",
".G c #e73c3c",
".N c #e73e3e",
".F c #e84141",
".7 c #e84444",
".x c #e84747",
".K c #e88080",
"#P c #e8adad",
"#d c #e94b4b",
".E c #e94e4e",
".w c #ea5353",
"#c c #ea5757",
".M c #eb5959",
".n c #eb5a5a",
".6 c #eb5c5c",
".v c #eb5f5f",
"af c #ebdcdc",
".m c #ec6262",
".D c #ec6363",
".z c #ed6868",
".u c #ed6969",
".l c #ed6e6e",
"#j c #ed6f6f",
".Z c #ee7171",
".L c #ee7474",
".t c #ee7676",
".k c #ef7979",
".Y c #ef7a7a",
".C c #ef7c7c",
"#b c #ef7f7f",
".j c #f08585",
".s c #f08686",
".c c #f18d8d",
".i c #f18f8f",
".B c #f29494",
".r c #f29595",
".o c #f29898",
".W c #f2d1d1",
".b c #f39898",
".h c #f39a9a",
".q c #f39c9c",
".5 c #f3a0a0",
".d c #f4a6a6",
".g c #f4a9a9",
".a c #f5adad",
".p c #f9cccc",
".# c #f9cece",
".X c #f9cfcf",
".f c #fad9d9",
".A c #fadbdb",
".e c #fbdddd",
"QtQtQtQtQt.#.a.b.c.c.d.eQtQtQtQt",
"QtQtQt.f.g.h.i.j.k.l.m.n.oQtQtQt",
"QtQt.p.q.r.s.t.u.v.n.w.x.y.zQtQt",
"Qt.A.B.c.C.D.E.F.G.H.G.y.I.J.KQt",
"Qt.o.j.L.M.N.I.O.P.Q.R.S.T.U.V.W",
".X.Y.Z.n.G.R.T.J.J.J.0.T.1.2.3.4",
".5.u.6.7.I.T.J.8.8.9.J.9.U#.###a",
"#b#c#d#e.O.J.8.8.8.8.J#f#g.3#h#i",
"#j.7.G#k#l.9.8.8.8.8.9#m#n#o#p#q",
".Y#r.I#s.0.9.9.8.8.9#f#t#u#v#w#x",
".a.9#f#f#y#y.9.9.9#f#z#A#B#C#D#E",
"Qt#F#n#G#H#I.1#J#J.U#K#o#L#M#N#O",
"Qt#P#Q#R#Q#S#.#T#U#V#W#C#X#Y#ZQt",
"QtQt#0#1#2#3#2#3#4#5#6#7#8#9QtQt",
"QtQtQta.a##waa#6abac#8adaeQtQtQt",
"QtQtQtQtafagahaiajakalamQtQtQtQt"};
