/* XPM */
static const char *offline[]={
"16 16 108 2",
"Qt c None",
"#K c #252525",
"#B c #262626",
"#P c #292929",
"#s c #2e2e2e",
"#J c #2f2f2f",
"#O c #313131",
"#A c #363636",
"#r c #393939",
"#k c #3a3a3a",
"#I c #414141",
"#N c #454545",
"#f c #4a4a4a",
"#a c #4f4f4f",
"#H c #505050",
"#q c #535353",
"#g c #575757",
"## c #585858",
".6 c #5a5a5a",
"#M c #5c5c5c",
"#L c #5e5e5e",
"#G c #5f5f5f",
"#F c #606060",
"#e c #626262",
"#E c #636363",
".5 c #646464",
"#z c #656565",
"#j c #6c6c6c",
".X c #6e6e6e",
"#. c #6f6f6f",
"#u c #747474",
"#y c #757575",
".Y c #767676",
".S c #787878",
"#v c #7a7a7a",
"#d c #7c7c7c",
"#x c #7d7d7d",
".W c #7e7e7e",
"#C c #7f7f7f",
"#w c #808080",
"#l c #818181",
"#p c #838383",
".N c #848484",
".R c #858585",
".9 c #868686",
"#n c #878787",
".4 c #8a8a8a",
"#o c #8d8d8d",
".M c #8e8e8e",
"#c c #8f8f8f",
".Q c #919191",
".8 c #939393",
"#i c #949494",
".3 c #959595",
".V c #969696",
".E c #979797",
".L c #989898",
".7 c #999999",
".I c #9a9a9a",
".H c #9b9b9b",
".J c #9c9c9c",
".K c #9d9d9d",
".D c #9f9f9f",
"#b c #a1a1a1",
".2 c #a3a3a3",
".v c #a4a4a4",
".C c #a5a5a5",
".B c #a6a6a6",
".G c #a7a7a7",
".A c #a8a8a8",
".U c #a9a9a9",
".u c #ababab",
".1 c #adadad",
".z c #aeaeae",
"#D c #afafaf",
".t c #b0b0b0",
".0 c #b2b2b2",
".m c #b3b3b3",
".s c #b5b5b5",
".l c #b7b7b7",
".y c #b8b8b8",
".r c #bababa",
".k c #bdbdbd",
".P c #bebebe",
".F c #bfbfbf",
".q c #c0c0c0",
".j c #c2c2c2",
".x c #c3c3c3",
".Z c #c4c4c4",
".i c #c7c7c7",
".p c #c8c8c8",
".w c #cacaca",
".c c #cbcbcb",
".h c #cccccc",
".o c #cecece",
".b c #d0d0d0",
".g c #d1d1d1",
"#t c #d2d2d2",
".T c #d3d3d3",
".d c #d7d7d7",
".f c #d8d8d8",
"#h c #d9d9d9",
".a c #dadada",
".n c #e7e7e7",
".# c #e8e8e8",
".O c #e9e9e9",
".e c #eeeeee",
"#m c #f8f8f8",
"QtQtQtQtQt.#.a.b.c.c.dQtQtQtQtQt",
"QtQtQt.e.f.g.h.i.j.k.l.m.bQtQtQt",
"QtQt.n.g.o.p.q.r.s.m.t.u.v.rQtQt",
"QtQt.o.w.x.y.z.A.B.C.B.v.D.E.qQt",
"Qt.b.i.F.m.G.D.H.I.I.J.K.L.M.NQt",
".O.j.P.m.B.J.L.E.E.E.L.L.Q.R.S.A",
".T.r.s.U.D.L.E.E.E.V.E.V.M.W.X.Y",
".Z.0.1.2.H.E.E.E.E.E.E.3.4.S.5.6",
".k.U.B.D.7.V.E.E.E.E.V.8.9#.###a",
".j#b.D.H.L.V.V.E.E.V.3#c#d#e#f#g",
"#h.V.3.3#i#i.V.V.V.3.Q.N#j#a#k#l",
"#m.L.9#n.4#o.Q.8.8.M#p#.#q#r#s#t",
"Qt.g.Y#u.Y#v.W#w#x#y#z#a#A#B#CQt",
"QtQt#D#E#F#G#F#G.6#H#I#J#K#LQtQt",
"QtQtQt.l#M#f#N#I#k#O#K#P#xQtQtQt",
"QtQtQtQtQt.V#g#A#s#I#y.wQtQtQtQt"};
