/* XPM */
static const char *online16x16[]={
"16 16 145 2",
"Qt c None",
"a# c #053407",
"#1 c #053507",
"a. c #074108",
"ae c #074309",
"#Q c #083e0a",
"#0 c #084b0a",
"#P c #084e0a",
"#G c #08500a",
"af c #09370b",
"#9 c #09590c",
"ad c #0a5f0c",
"#z c #0a650d",
"#F c #0b6d0e",
"#8 c #0b6e0e",
"#O c #0c720f",
"#r c #0c7910",
"#7 c #0d7c10",
"#6 c #0d8311",
"#5 c #0d8411",
"#y c #0e8611",
"#4 c #0e8812",
"#j c #0e8a12",
"#Z c #0e8b12",
"al c #0f3c11",
"#E c #0f9513",
"#b c #0f9714",
"#q c #0f9914",
"#U c #10a015",
"#Y c #10a115",
"#T c #10a215",
".5 c #11a515",
"#V c #11a716",
"#x c #11aa16",
"#X c #11ac16",
"#a c #12ad17",
"#W c #12af17",
"#N c #12b418",
"#D c #12b618",
"ak c #134615",
"#s c #136916",
".4 c #13b718",
"#p c #13b818",
"#J c #13b918",
"#K c #13bd19",
"#i c #13be19",
"#L c #14c219",
".W c #14c319",
"#w c #14c41a",
"#C c #14c71a",
".3 c #14c81a",
"#M c #14c91a",
"#k c #157917",
"#o c #15ca1a",
"#B c #15cc1b",
"#h c #15cd1b",
"## c #15ce1b",
"#. c #15cf1b",
".X c #16b41b",
".K c #16cf1c",
".2 c #18d01e",
".V c #19d01f",
"#n c #1bd020",
".R c #1bd021",
"ac c #1c781f",
".S c #1dd123",
".Q c #1ed124",
"#v c #20d126",
".T c #21d127",
".U c #23d228",
"am c #254e27",
".J c #26d32c",
"#m c #28d32e",
"#A c #296a2b",
"#u c #2bd430",
"#c c #2f9632",
"#g c #31d537",
"aj c #326833",
"#I c #32c536",
".z c #33d539",
".I c #36d63b",
".H c #37d63c",
".P c #39d63e",
".G c #3cd741",
".9 c #3fd844",
".y c #42d847",
"aa c #466947",
"#f c #47d94b",
".F c #49da4e",
".x c #4fdb53",
"#e c #52dc57",
".O c #54dc59",
".w c #55dc5a",
".n c #56dc5a",
".8 c #58dd5c",
".v c #5bdd5f",
".m c #5dde62",
".E c #5fde63",
"an c #617f62",
"#H c #648d66",
".A c #64df68",
".u c #65df69",
"ag c #6a866b",
".l c #6ae16e",
"#2 c #6c886d",
"#l c #6ce16f",
".1 c #6de171",
".6 c #6ec171",
".N c #71e274",
".t c #73e276",
".k c #75e379",
".0 c #76e37a",
"#t c #77e37a",
".D c #78e37c",
"ai c #79a37a",
"#d c #7be47f",
"#3 c #7cc57e",
".L c #7dde80",
".j c #81e585",
".s c #83e686",
".c c #8ae78d",
".i c #8ce78f",
".C c #91e894",
".r c #92e995",
"ab c #95c596",
".o c #95e998",
".b c #96e998",
".M c #96ea98",
".h c #97ea9a",
".q c #99ea9c",
".7 c #9deba0",
".d c #a4eca6",
".g c #a7eda9",
"#S c #abe2ad",
".a c #abeead",
"ao c #c2cec3",
"#R c #cad6ca",
".p c #caf4cc",
".# c #cdf5ce",
".Z c #cef5cf",
".Y c #d0efd1",
".f c #d8f7d9",
".B c #daf7db",
"ah c #dce9dc",
".e c #dcf8dd",
"QtQtQtQtQt.#.a.b.c.c.d.eQtQtQtQt",
"QtQtQt.f.g.h.i.j.k.l.m.n.oQtQtQt",
"QtQt.p.q.r.s.t.u.v.w.x.y.z.AQtQt",
"Qt.B.C.c.D.E.F.G.H.I.H.z.J.K.LQt",
"Qt.M.j.N.O.P.J.Q.R.S.T.U.V.W.X.Y",
".Z.0.1.w.H.T.V.K.K.K.2.V.3.4.5.6",
".7.u.8.9.J.V.K#.#.##.K##.W#a#b#c",
"#d#e#f#g.Q.K#.#.#.#..K#h#i.5#j#k",
"#l.9.H#m#n###.#.#.#.###o#p#q#r#s",
"#t#u.J#v.2#####.#.###h#w#x#y#z#A",
".a###h#h#B#B#######h#C#D#E#F#G#H",
"Qt#I#p#J#K#L.3#M#M.W#N#q#O#P#Q#R",
"Qt#S#T#U#T#V#a#W#X#Y#Z#F#0#1#2Qt",
"QtQt#3#4#5#6#5#6#7#8#9a.a#aaQtQt",
"QtQtQtabac#zad#9#Gaea#afagQtQtQt",
"QtQtQtQtahaiajakalamanaoQtQtQtQt"};
