/* XPM */
static const char *online[]={
"16 16 142 2",
"Qt c None",
"#8 c #1e2330",
"#Y c #1f2431",
"ad c #222633",
"#N c #252b3a",
"#7 c #262c3d",
"ai c #272c38",
"ac c #272e3f",
"#X c #2b3346",
"#M c #2d3549",
"ah c #2e3442",
"#C c #2e364a",
"ab c #2f364b",
"#6 c #343c53",
"aa c #374059",
"aj c #3b3f4b",
"#u c #3b455f",
"#B c #3f4a65",
"#5 c #404a66",
"#o c #414b63",
"#L c #424d6b",
"#n c #465271",
"#4 c #485474",
"#g c #4a5571",
"#v c #4c5366",
"#3 c #4c587a",
"#2 c #4c597b",
"a# c #4d5771",
"#t c #4e5b7d",
"ag c #4f5563",
"#1 c #4f5c7f",
"#f c #505d81",
"#W c #505e81",
"#A c #56648b",
"#9 c #585c66",
".9 c #58668d",
"#m c #58678e",
"#R c #5d6c95",
"#V c #5d6d96",
"#Q c #5e6e97",
".1 c #606f9a",
"#S c #61719c",
"#s c #63739f",
"#U c #6474a0",
".8 c #6475a1",
"#. c #65718e",
"#T c #6677a3",
"#K c #687aa8",
"#z c #697baa",
".U c #6a7ba8",
".0 c #6a7caa",
"#l c #6b7dac",
"#G c #6b7dad",
"#H c #6e80b0",
"#e c #6e80b1",
"#I c #7083b5",
"ak c #71747c",
".T c #7184b6",
"#r c #7285b7",
"#y c #7387b9",
".Z c #7487ba",
"#J c #7588bc",
"#k c #7589bc",
"#x c #768abe",
"#d c #778abf",
".7 c #788bc0",
".6 c #788cc1",
"ae c #797c84",
".I c #798cc1",
"#D c #7a7f8a",
".Y c #7a8dc2",
".S c #7a8ec2",
"#Z c #7b7e85",
"#j c #7b8fc2",
".O c #7c8fc3",
".P c #7d90c3",
".N c #7d91c3",
"#q c #7e91c4",
".Q c #7f92c4",
"#F c #8090b9",
".R c #8093c5",
".H c #8295c6",
"#i c #8395c6",
"#p c #8597c7",
"#c c #889ac9",
".x c #899bc9",
".G c #8b9cca",
".F c #8c9dca",
".M c #8d9eca",
"af c #8f94a0",
".E c #8f9fcb",
".5 c #90a1cc",
".w c #92a2cd",
"#b c #95a4ce",
".D c #96a6cf",
".v c #99a8d0",
".2 c #9aa3bb",
"#a c #9baad1",
".m c #9dabd2",
".u c #9dacd2",
".4 c #9fadd3",
".t c #a0aed3",
".l c #a2b0d4",
"#0 c #a3abbf",
".C c #a3b1d5",
".y c #a5b3d6",
".s c #a6b3d6",
".k c #a9b6d8",
"#h c #aab6d8",
".X c #abb7d8",
".L c #adb9d9",
".r c #aebada",
"a. c #afb4c2",
".J c #b0bbd7",
".j c #b0bbdb",
".W c #b0bcdb",
".B c #b1bddb",
"## c #b3bfdc",
".i c #b6c1de",
".q c #b8c2de",
".A c #bbc5e0",
".c c #bbc6e0",
".h c #bdc7e1",
".z c #bfc9e2",
".p c #c0c9e2",
".b c #c2cbe3",
".K c #c2cce3",
".g c #c3cce4",
".o c #c4cde4",
".3 c #c7cfe5",
"al c #c8cacd",
"#P c #c8cedd",
".d c #cbd3e7",
".f c #ccd4e8",
"#w c #ced6e9",
".a c #cfd6e9",
"#O c #d0d1d5",
".n c #e1e5f1",
".# c #e2e6f2",
".V c #e3e7f2",
".e c #e9ecf5",
"#E c #f7f8fb",
"QtQtQtQtQt.#.a.b.c.c.dQtQtQtQtQt",
"QtQtQt.e.f.g.h.i.j.k.l.m.bQtQtQt",
"QtQt.n.o.p.q.r.s.t.u.v.w.x.yQtQt",
"QtQt.z.A.B.C.D.E.F.G.F.x.H.I.JQt",
"Qt.K.i.L.m.M.H.N.O.P.Q.R.S.T.UQt",
".V.W.X.u.F.Q.S.I.I.I.Y.S.Z.0.1.2",
".3.s.4.5.H.S.I.6.6.7.I.7.T.8.9#.",
"###a#b#c.N.I.6.6.6.6.I#d#e.1#f#g",
"#h.5.F#i#j.7.6.6.6.6.7#k#l#m#n#o",
".W#p.H#q.Y.7.7.6.6.7#d#r#s#t#u#v",
"#w.7#d#d#x#x.7.7.7#d#y#z#A#B#C#D",
"#E#F#l#G#H#I.Z#J#J.T#K#m#L#M#N#O",
"Qt#P#Q#R#Q#S.8#T#U#V#W#B#X#Y#ZQt",
"QtQt#0#1#2#3#2#3#4#5#6#7#8#9QtQt",
"QtQtQta.a##uaa#6abac#8adaeQtQtQt",
"QtQtQtQtQtafagahaiajakalQtQtQtQt"};
