/* XPM */
static const char * up16x16_xpm[] = {
"16 16 11 1",
" 	c None",
".	c #778BC0",
"+	c #788CC1",
"@	c #768ABE",
"#	c #7386B9",
"$	c #6F82B3",
"%	c #697BA9",
"&	c #7588BC",
"*	c #7083B5",
"=	c #6B7DAC",
"-	c #697AA8",
"                ",
"                ",
"                ",
"                ",
"       .+       ",
"      @+++      ",
"     #+++++     ",
"    $++++++.    ",
"   %++++++++&   ",
"   ++++++++++*  ",
"  ++++++++++++= ",
"  ------------  ",
"                ",
"                ",
"                ",
"                "};
